<svg width="126" height="101" viewBox="0 0 126 101" fill="none" xmlns="http://www.w3.org/2000/svg">
<circle cx="67.5" cy="83.5" r="67.5" fill="#FEF1F1"/>
<path d="M48.0816 60.7341C48.0816 61.0478 48.3439 61.3042 48.6681 61.3042H53.8856C54.2098 61.3042 54.4721 61.0478 54.4721 60.7341V55.6376C54.4721 55.3208 54.2098 55.0647 53.8856 55.0647H48.6681C48.3439 55.0647 48.0816 55.3208 48.0816 55.6376V60.7341ZM48.6681 54.777H53.8856C54.3719 54.777 54.7671 55.1628 54.7671 55.6376V60.7341C54.7671 61.2064 54.3719 61.5919 53.8856 61.5919H48.6681C48.1818 61.5919 47.787 61.2064 47.787 60.7341V55.6376C47.787 55.1628 48.1818 54.777 48.6681 54.777Z" fill="#D1D3D4"/>
<path d="M49.2666 57.4592L51.0911 59.2408L51.4656 59.6091C51.6365 59.7732 51.9107 59.7732 52.0788 59.6091L52.4532 59.2408L53.2872 58.4292C53.3815 58.3369 53.4258 58.2164 53.4258 58.0983C53.4258 57.9772 53.3815 57.8566 53.2872 57.7643C53.0988 57.5803 52.7919 57.5803 52.6065 57.7643L51.9195 58.4351C51.8369 58.5127 51.7074 58.5127 51.6277 58.4351L49.9473 56.7973C49.8531 56.7053 49.7293 56.659 49.6087 56.659C49.4849 56.659 49.3611 56.7053 49.2666 56.7973C49.0809 56.9788 49.0809 57.2779 49.2666 57.4592Z" fill="white"/>
<path d="M49.2666 57.4592L51.0911 59.2408L51.4656 59.6091C51.6365 59.7732 51.9107 59.7732 52.0788 59.6091L52.4532 59.2408L53.2872 58.4292C53.3815 58.3369 53.4258 58.2164 53.4258 58.0983C53.4258 57.9772 53.3815 57.8566 53.2872 57.7643C53.0988 57.5803 52.7919 57.5803 52.6065 57.7643L51.9195 58.4351C51.8369 58.5127 51.7074 58.5127 51.6277 58.4351L49.9473 56.7973C49.8531 56.7053 49.7293 56.659 49.6087 56.659C49.4849 56.659 49.3611 56.7053 49.2666 56.7973C49.0809 56.9788 49.0809 57.2779 49.2666 57.4592Z" fill="#00C853"/>
<path d="M28.6738 60.504C28.6738 60.7515 28.7772 60.976 28.9452 61.1373C29.1104 61.3011 29.3401 61.402 29.5936 61.402H42.7846C43.2916 61.402 43.7043 60.999 43.7043 60.504C43.7043 60.2565 43.601 60.0292 43.4358 59.8679C43.268 59.7041 43.0381 59.6032 42.7846 59.6032H29.5936C29.0869 59.6032 28.6738 60.0062 28.6738 60.504Z" fill="#D1D3D4"/>
<path d="M18.0682 55.8188C18.0682 56.0663 18.1712 56.2906 18.3393 56.4549C18.5045 56.6159 18.7345 56.7166 18.9877 56.7166H42.7846C43.2916 56.7166 43.7043 56.3166 43.7043 55.8188C43.7043 55.5713 43.601 55.3468 43.4358 55.1858C43.268 55.0217 43.0381 54.9208 42.7846 54.9208H18.9877C18.4807 54.9208 18.0682 55.3238 18.0682 55.8188Z" fill="#D2D5DA"/>
<path d="M48.0816 49.2227C48.0816 49.5364 48.3439 49.7925 48.6681 49.7925H53.8856C54.2098 49.7925 54.4721 49.5364 54.4721 49.2227V44.1259C54.4721 43.8094 54.2098 43.5533 53.8856 43.5533H48.6681C48.3439 43.5533 48.0816 43.8094 48.0816 44.1259V49.2227ZM48.6681 43.2653H53.8856C54.3719 43.2653 54.7671 43.6511 54.7671 44.1259V49.2227C54.7671 49.6947 54.3719 50.0802 53.8856 50.0802H48.6681C48.1818 50.0802 47.787 49.6947 47.787 49.2227V44.1259C47.787 43.6511 48.1818 43.2653 48.6681 43.2653Z" fill="#D1D3D4"/>
<path d="M49.2666 45.9478L51.0911 47.7291L51.4656 48.0974C51.6365 48.2618 51.9107 48.2618 52.0788 48.0974L52.4532 47.7291L53.2872 46.9175C53.3815 46.8255 53.4258 46.7044 53.4258 46.5866C53.4258 46.4658 53.3815 46.3447 53.2872 46.2526C53.0988 46.0683 52.7919 46.0683 52.6065 46.2526L51.9195 46.9231C51.8369 47.001 51.7074 47.001 51.6277 46.9231L49.9473 45.2856C49.8531 45.1936 49.7293 45.1476 49.6087 45.1476C49.4849 45.1476 49.3611 45.1936 49.2666 45.2856C49.0809 45.4671 49.0809 45.7665 49.2666 45.9478Z" fill="white"/>
<path d="M49.2666 45.9478L51.0911 47.7291L51.4656 48.0974C51.6365 48.2618 51.9107 48.2618 52.0788 48.0974L52.4532 47.7291L53.2872 46.9175C53.3815 46.8255 53.4258 46.7044 53.4258 46.5866C53.4258 46.4658 53.3815 46.3447 53.2872 46.2526C53.0988 46.0683 52.7919 46.0683 52.6065 46.2526L51.9195 46.9231C51.8369 47.001 51.7074 47.001 51.6277 46.9231L49.9473 45.2856C49.8531 45.1936 49.7293 45.1476 49.6087 45.1476C49.4849 45.1476 49.3611 45.1936 49.2666 45.2856C49.0809 45.4671 49.0809 45.7665 49.2666 45.9478Z" fill="#00C853"/>
<path d="M28.6738 48.9924C28.6738 49.2402 28.7772 49.4644 28.9452 49.6254C29.1104 49.7895 29.3401 49.8904 29.5936 49.8904H42.7846C43.2916 49.8904 43.7043 49.4874 43.7043 48.9924C43.7043 48.7451 43.601 48.5176 43.4358 48.3563C43.268 48.1925 43.0381 48.0916 42.7846 48.0916H29.5936C29.0869 48.0916 28.6738 48.4946 28.6738 48.9924Z" fill="#D1D3D4"/>
<path d="M18.0682 44.3074C18.0682 44.5549 18.1712 44.7794 18.3393 44.9435C18.5045 45.1048 18.7345 45.2054 18.9877 45.2054H42.7846C43.2916 45.2054 43.7043 44.8055 43.7043 44.3074C43.7043 44.0599 43.601 43.8357 43.4358 43.6744C43.268 43.5103 43.0381 43.4097 42.7846 43.4097H18.9877C18.4807 43.4097 18.0682 43.8124 18.0682 44.3074Z" fill="#D2D5DA"/>
<path d="M48.0816 37.7113C48.0816 38.0248 48.3439 38.2809 48.6681 38.2809H53.8856C54.2098 38.2809 54.4721 38.0248 54.4721 37.7113V32.6143C54.4721 32.2977 54.2098 32.0416 53.8856 32.0416H48.6681C48.3439 32.0416 48.0816 32.2977 48.0816 32.6143V37.7113ZM48.6681 31.754H53.8856C54.3719 31.754 54.7671 32.1395 54.7671 32.6143V37.7113C54.7671 38.183 54.3719 38.5688 53.8856 38.5688H48.6681C48.1818 38.5688 47.787 38.183 47.787 37.7113V32.6143C47.787 32.1395 48.1818 31.754 48.6681 31.754Z" fill="#D1D3D4"/>
<path d="M49.2666 34.4362L51.0911 36.2175L51.4656 36.5861C51.6365 36.7499 51.9107 36.7499 52.0788 36.5861L52.4532 36.2175L53.2872 35.406C53.3815 35.314 53.4258 35.1931 53.4258 35.075C53.4258 34.9542 53.3815 34.8333 53.2872 34.7413C53.0988 34.557 52.7919 34.557 52.6065 34.7413L51.9195 35.4118C51.8369 35.4894 51.7074 35.4894 51.6277 35.4118L49.9473 33.7743C49.8531 33.682 49.7293 33.636 49.6087 33.636C49.4849 33.636 49.3611 33.682 49.2666 33.7743C49.0809 33.9556 49.0809 34.2549 49.2666 34.4362Z" fill="white"/>
<path d="M49.2666 34.4362L51.0911 36.2175L51.4656 36.5861C51.6365 36.7499 51.9107 36.7499 52.0788 36.5861L52.4532 36.2175L53.2872 35.406C53.3815 35.314 53.4258 35.1931 53.4258 35.075C53.4258 34.9542 53.3815 34.8333 53.2872 34.7413C53.0988 34.557 52.7919 34.557 52.6065 34.7413L51.9195 35.4118C51.8369 35.4894 51.7074 35.4894 51.6277 35.4118L49.9473 33.7743C49.8531 33.682 49.7293 33.636 49.6087 33.636C49.4849 33.636 49.3611 33.682 49.2666 33.7743C49.0809 33.9556 49.0809 34.2549 49.2666 34.4362Z" fill="#00C853"/>
<path d="M28.6738 37.4812C28.6738 37.7287 28.7772 37.9532 28.9452 38.1142C29.1104 38.2783 29.3401 38.3789 29.5936 38.3789H42.7846C43.2916 38.3789 43.7043 37.9762 43.7043 37.4812C43.7043 37.2337 43.601 37.0064 43.4358 36.8451C43.268 36.681 43.0381 36.5804 42.7846 36.5804H29.5936C29.0869 36.5804 28.6738 36.9834 28.6738 37.4812Z" fill="#D1D3D4"/>
<path d="M18.0682 32.7957C18.0682 33.0433 18.1712 33.2675 18.3393 33.4316C18.5045 33.5929 18.7345 33.6935 18.9877 33.6935H42.7846C43.2916 33.6935 43.7043 33.2935 43.7043 32.7957C43.7043 32.5482 43.601 32.3237 43.4358 32.1624C43.268 31.9983 43.0381 31.8977 42.7846 31.8977H18.9877C18.4807 31.8977 18.0682 32.3007 18.0682 32.7957Z" fill="#D2D5DA"/>
<path d="M48.0816 26.1996C48.0816 26.5133 48.3439 26.7694 48.6681 26.7694H53.8856C54.2098 26.7694 54.4721 26.5133 54.4721 26.1996V21.1028C54.4721 20.7863 54.2098 20.5299 53.8856 20.5299H48.6681C48.3439 20.5299 48.0816 20.7863 48.0816 21.1028V26.1996ZM48.6681 20.2422H53.8856C54.3719 20.2422 54.7671 20.6278 54.7671 21.1028V26.1996C54.7671 26.6716 54.3719 27.0571 53.8856 27.0571H48.6681C48.1818 27.0571 47.787 26.6716 47.787 26.1996V21.1028C47.787 20.6278 48.1818 20.2422 48.6681 20.2422Z" fill="#D1D3D4"/>
<path fill-rule="evenodd" clip-rule="evenodd" d="M10.9419 66.9157V16.1272H10.3866V66.9157C10.3866 68.5628 11.7541 69.898 13.4411 69.898H41.5801V69.3558H13.4411C12.0609 69.3558 10.9419 68.2633 10.9419 66.9157Z" fill="#1F2937"/>
<path d="M59.4551 13.2773C59.4551 12.2791 58.6262 11.4698 57.6038 11.4698H15.4786C14.4562 11.4698 13.6273 12.2791 13.6273 13.2773V64.933C13.6273 65.9312 14.4562 66.7404 15.4786 66.7404H57.6038C58.6262 66.7404 59.4551 65.9312 59.4551 64.933V13.2773Z" fill="white"/>
<path fill-rule="evenodd" clip-rule="evenodd" d="M15.4786 12.0121H57.6038C58.3195 12.0121 58.8997 12.5785 58.8997 13.2773V64.933C58.8997 65.6317 58.3195 66.1982 57.6038 66.1982H15.4786C14.7629 66.1982 14.1827 65.6317 14.1827 64.933V13.2773C14.1827 12.5785 14.7629 12.0121 15.4786 12.0121ZM57.6038 11.4698C58.6262 11.4698 59.4551 12.2791 59.4551 13.2773V64.933C59.4551 65.9312 58.6262 66.7404 57.6038 66.7404H15.4786C14.4562 66.7404 13.6273 65.9312 13.6273 64.933V13.2773C13.6273 12.2791 14.4562 11.4698 15.4786 11.4698H57.6038Z" fill="#1F2937"/>
<path opacity="0.5" d="M20.8459 11.9701H15.1071C14.5959 11.9701 14.1815 12.3747 14.1815 12.8738V65.289C14.1815 65.7881 14.5959 66.1927 15.1071 66.1927H20.8459V11.9701Z" fill="#9CA3AF"/>
<path d="M28.8136 24.8172C28.8136 27.5167 26.5721 29.7051 23.8072 29.7051C21.0422 29.7051 18.8008 27.5167 18.8008 24.8172C18.8008 22.1177 21.0422 19.9293 23.8072 19.9293C26.5721 19.9293 28.8136 22.1177 28.8136 24.8172Z" fill="#00C853"/>
<path d="M26.7558 23.8005L24.1203 26.3739L23.5795 26.906C23.3326 27.143 22.9365 27.143 22.6938 26.906L22.1529 26.3739L20.9481 25.2017C20.812 25.0684 20.748 24.8938 20.748 24.7237C20.748 24.5491 20.812 24.3746 20.9481 24.2413C21.2204 23.9754 21.6637 23.9754 21.9315 24.2413L22.9238 25.2101C23.0431 25.3222 23.2301 25.3222 23.3453 25.2101L25.7724 22.8445C25.9086 22.7115 26.0874 22.6451 26.2616 22.6451C26.4404 22.6451 26.6192 22.7115 26.7558 22.8445C27.0239 23.1067 27.0239 23.5387 26.7558 23.8005Z" fill="white"/>
<path d="M28.8136 40.4207C28.8136 43.1202 26.5721 45.3086 23.8072 45.3086C21.0422 45.3086 18.8008 43.1202 18.8008 40.4207C18.8008 37.7212 21.0422 35.5328 23.8072 35.5328C26.5721 35.5328 28.8136 37.7212 28.8136 40.4207Z" fill="#00C853"/>
<path d="M26.7558 39.4039L24.1203 41.9773L23.5795 42.5094C23.3326 42.7464 22.9365 42.7464 22.6938 42.5094L22.1529 41.9773L20.9481 40.8051C20.812 40.6718 20.748 40.4972 20.748 40.3271C20.748 40.1525 20.812 39.978 20.9481 39.8447C21.2204 39.5788 21.6637 39.5788 21.9315 39.8447L22.9238 40.8135C23.0431 40.9256 23.2301 40.9256 23.3453 40.8135L25.7724 38.4478C25.9086 38.3149 26.0874 38.2485 26.2616 38.2485C26.4404 38.2485 26.6192 38.3149 26.7558 38.4478C27.0239 38.7101 27.0239 39.1421 26.7558 39.4039Z" fill="white"/>
<path d="M28.8136 56.5884C28.8136 59.2879 26.5721 61.4763 23.8072 61.4763C21.0422 61.4763 18.8008 59.2879 18.8008 56.5884C18.8008 53.8889 21.0422 51.7006 23.8072 51.7006C26.5721 51.7006 28.8136 53.8889 28.8136 56.5884Z" fill="#00C853"/>
<path d="M26.7558 55.5717L24.1203 58.1452L23.5795 58.6772C23.3326 58.9142 22.9365 58.9142 22.6938 58.6772L22.1529 58.1452L20.9481 56.9729C20.812 56.8396 20.748 56.6651 20.748 56.4949C20.748 56.3204 20.812 56.1458 20.9481 56.0125C21.2204 55.7467 21.6637 55.7467 21.9315 56.0125L22.9238 56.9814C23.0431 57.0934 23.2301 57.0934 23.3453 56.9814L25.7724 54.6157C25.9086 54.4828 26.0874 54.4163 26.2616 54.4163C26.4404 54.4163 26.6192 54.4828 26.7558 54.6157C27.0239 54.8779 27.0239 55.3099 26.7558 55.5717Z" fill="white"/>
<path d="M32.1846 23.1184C32.1846 23.0185 32.2675 22.9376 32.3697 22.9376H54.7208C54.823 22.9376 54.9059 23.0185 54.9059 23.1184V23.3209C54.9059 23.4207 54.823 23.5016 54.7208 23.5016H32.3697C32.2675 23.5016 32.1846 23.4207 32.1846 23.3209V23.1184Z" fill="#1D1D1F"/>
<path d="M32.1846 25.9381C32.1846 25.8382 32.2675 25.7573 32.3697 25.7573H41.6271C41.7294 25.7573 41.8122 25.8382 41.8122 25.9381V26.1406C41.8122 26.2404 41.7294 26.3213 41.6271 26.3213H32.3697C32.2675 26.3213 32.1846 26.2404 32.1846 26.1406V25.9381Z" fill="#1D1D1F"/>
<path d="M32.1846 39.098C32.1846 38.9982 32.2675 38.9172 32.3697 38.9172H54.7208C54.823 38.9172 54.9059 38.9982 54.9059 39.098V39.3005C54.9059 39.4003 54.823 39.4812 54.7208 39.4812H32.3697C32.2675 39.4812 32.1846 39.4003 32.1846 39.3005V39.098Z" fill="#1D1D1F"/>
<path d="M32.1846 41.9174C32.1846 41.8176 32.2675 41.7367 32.3697 41.7367H41.6271C41.7294 41.7367 41.8122 41.8176 41.8122 41.9174V42.1199C41.8122 42.2198 41.7294 42.3007 41.6271 42.3007H32.3697C32.2675 42.3007 32.1846 42.2198 32.1846 42.1199V41.9174Z" fill="#1D1D1F"/>
<path d="M32.1846 55.2655C32.1846 55.1656 32.2675 55.0847 32.3697 55.0847H54.7208C54.823 55.0847 54.9059 55.1656 54.9059 55.2655V55.468C54.9059 55.5678 54.823 55.6487 54.7208 55.6487H32.3697C32.2675 55.6487 32.1846 55.5678 32.1846 55.468V55.2655Z" fill="#1D1D1F"/>
<path d="M32.1846 58.0855C32.1846 57.9857 32.2675 57.9048 32.3697 57.9048H41.6271C41.7294 57.9048 41.8122 57.9857 41.8122 58.0855V58.288C41.8122 58.3878 41.7294 58.4688 41.6271 58.4688H32.3697C32.2675 58.4688 32.1846 58.3878 32.1846 58.288V58.0855Z" fill="#1D1D1F"/>
<path d="M17.3763 8.75615C17.4013 8.75269 17.426 8.74638 17.4499 8.7358C17.6017 8.67415 17.6728 8.50453 17.6077 8.35954L14.4966 1.25863C14.4327 1.11202 14.2574 1.04473 14.1071 1.10618C13.9554 1.16783 13.8843 1.33744 13.9494 1.48243L17.0605 8.58334C17.1149 8.70658 17.2466 8.77407 17.3763 8.75615Z" fill="#111827"/>
<path d="M11.4774 13.6039C11.5702 13.591 11.654 13.5373 11.6998 13.4511C11.7751 13.3099 11.7178 13.1363 11.5717 13.0635L4.47303 9.53974C4.32693 9.46696 4.1472 9.52231 4.07191 9.66346C3.99661 9.80461 4.05393 9.97828 4.20003 10.0511L11.2987 13.5748C11.3556 13.6033 11.417 13.6122 11.4759 13.6041L11.4774 13.6039Z" fill="#111827"/>
<path d="M13.4366 10.4356C13.4897 10.4283 13.5421 10.4065 13.5863 10.3699C13.7123 10.2667 13.7276 10.0859 13.6208 9.96414L10.6995 6.62716C10.5927 6.50536 10.4056 6.49055 10.2795 6.59368C10.1535 6.69681 10.1382 6.8776 10.245 6.9994L13.1663 10.3364C13.2352 10.4155 13.3379 10.4492 13.4366 10.4356Z" fill="#111827"/>
<path d="M73.3728 116.945C73.3728 116.945 65.9072 119.102 59.606 116.781C53.3004 114.461 53.9646 97.5413 53.9646 97.5413L75.3611 99.2017L73.3685 116.949L73.3728 116.945Z" fill="white"/>
<path d="M61.4303 42.8791C61.4303 42.8791 59.6059 43.043 56.9534 45.0356C54.301 47.0282 52.8044 49.3485 52.4766 49.5124C52.1445 49.6763 35.889 55.6497 34.5606 55.9818C33.2323 56.3139 32.9002 55.6497 31.74 56.4778C30.5798 57.3059 27.2632 68.4203 23.6101 74.7258C19.9613 81.0314 18.3009 84.844 17.9688 86.1724C17.6367 87.5008 17.3046 89.1569 16.1444 90.9813C14.9842 92.8057 14.1259 93.7373 13.6429 96.4242C13.1599 99.1112 16.3126 102.264 16.3126 102.264L31.0758 100.772C31.0758 100.772 33.7283 94.7983 33.8965 92.9739C34.0604 91.1495 37.1311 86.0904 37.6271 86.5864C38.1231 87.0824 39.9475 92.8919 40.4478 94.5481C40.9438 96.2086 41.332 98.2702 41.4959 99.9307C41.6598 101.591 41.677 103.592 41.677 103.756C41.677 103.92 39.2661 115.117 39.1281 116.147C38.9901 117.178 37.239 123.747 36.5791 125.075C35.9192 126.403 35.2421 128.038 35.5742 128.534C35.9063 129.03 40.4521 131.868 47.2493 133.36C54.0508 134.853 60.5202 134.188 61.6804 132.2C62.8406 130.207 63.0088 115.28 63.1727 114.452C63.3366 113.624 64.665 109.643 64.9971 109.975C65.3292 110.308 68.3137 114.621 68.4819 116.941C68.6458 119.261 71.9668 128.387 73.623 131.04C75.2834 133.692 77.2717 135.189 79.096 135.189C80.9204 135.189 87.5537 134.525 90.3744 132.368C93.195 130.212 94.9504 129.332 94.9504 128.504C94.9504 127.676 92.63 121.206 92.63 117.389C92.63 113.572 89.7792 102.665 89.7792 102.665C89.7792 102.665 91.5346 90.0713 92.0349 90.2352C92.5308 90.3991 93.0311 94.0521 93.8592 96.2086C94.6873 98.3651 95.4809 101.186 95.4982 101.436C95.5154 101.686 112.435 100.69 112.435 100.69C112.435 100.69 113.595 97.041 112.599 95.2166C111.603 93.3922 110.606 92.0639 110.11 91.2358C109.614 90.4077 110.11 89.4114 109.114 86.9228C108.118 84.4343 105.297 78.6291 104.637 76.3044C103.973 73.984 101.152 61.7051 99.9923 60.0489C98.8321 58.3884 97.8358 59.3847 97.0077 58.8887C96.1796 58.3927 82.5766 52.0872 82.5766 52.0872C82.5766 52.0872 78.4276 44.6215 73.6186 43.6296C68.8097 42.6333 61.426 42.8834 61.426 42.8834L61.4303 42.8791Z" fill="#C9D3E9"/>
<path fill-rule="evenodd" clip-rule="evenodd" d="M39.7157 75.1962V75.1961L41.5508 73.3557V73.3559H44.3317V70.5671H44.3315L46.1665 68.7268H46.1667V75.1962H39.7157Z" fill="#B11116"/>
<path fill-rule="evenodd" clip-rule="evenodd" d="M44.3317 70.5671H41.551V73.3557L39.7159 75.1961V68.7268H46.1667L44.3317 70.5671Z" fill="#ED1C24"/>
<path d="M41.0214 78.2408C42.4834 78.6419 43.9024 79.1293 45.3904 79.4484C46.7748 79.7417 48.1722 79.953 49.5783 80.0911C48.1119 76.6407 46.8352 73.1084 45.6578 69.5502C44.9548 67.4283 44.2906 65.2977 43.6307 63.1628C43.3202 62.1536 42.9191 61.1271 42.6991 60.092C42.5395 59.3631 42.7379 58.6385 43.4625 58.3237C44.2776 57.97 45.343 58.259 46.184 58.4358C47.4951 55.4642 49.216 52.7643 51.3638 50.3232C51.7002 49.9393 52.2134 50.4871 51.9115 50.8709C50.0613 53.256 48.4914 55.9084 47.3097 58.6903C47.5598 58.755 47.8143 58.8283 48.0644 58.9016C48.6639 59.0871 49.492 59.6003 50.1303 59.3631C50.6349 59.1776 51.0921 58.5479 51.4716 58.1813C51.9288 57.7414 52.3903 57.3015 52.8475 56.8573C53.8437 55.9041 55.2454 54.8992 56.2805 53.9849C56.7291 53.5924 56.9404 54.2522 56.535 54.6922C55.0255 56.3268 53.4297 57.8881 51.8469 59.4537C51.3164 59.9798 50.7643 60.5621 49.975 60.644C48.9356 60.7562 47.8229 60.1351 46.8266 59.8893C46.3306 59.7685 45.826 59.6693 45.3171 59.5917C45.1704 59.5701 44.1526 59.3156 43.9714 59.5097C43.7989 59.6952 44.2259 60.6225 44.2992 60.8597C44.4804 61.4549 44.6615 62.05 44.8469 62.6452C45.4896 64.7327 46.1408 66.8158 46.8223 68.886C48.1981 73.0696 49.6947 77.2186 51.5018 81.234C53.2399 85.0984 55.3231 88.7773 57.4192 92.4562C59.7093 96.4759 62.0168 100.526 63.6427 104.869C63.936 105.65 62.7112 105.956 62.4093 105.21C59.1055 97.0754 53.9559 89.8944 50.3675 81.8982C50.2726 81.6825 50.1777 81.4669 50.0828 81.2469C50.0613 81.2469 50.0441 81.2469 50.0182 81.2469C46.9129 81.083 43.5747 80.6215 40.685 79.4225C39.9647 79.125 40.2192 77.9993 41.0171 78.2192L41.0214 78.2408Z" fill="#A4B6DA"/>
<path d="M67.5418 105.309C69.6551 102.122 71.8331 98.9818 73.7998 95.6996C75.7277 92.4778 77.496 89.1612 79.1953 85.8144C82.6629 78.9827 85.9796 72.069 89.3609 65.1942C89.8094 64.2842 90.3701 63.3612 90.6979 62.4037C90.7971 62.1148 90.9696 61.6101 90.823 61.3126C90.5858 60.8295 89.6973 61.0883 89.3005 61.1487C87.2303 61.4635 85.1989 61.9897 83.2193 62.6754C83.0295 62.7401 82.7362 62.6754 82.6111 62.5159C80.9765 60.4025 79.2557 57.763 77.8496 55.4901C77.483 54.8992 78.1386 54.4162 78.5139 54.9941C79.8509 57.0298 81.7572 59.4235 83.2667 61.3341C84.2156 61.0063 85.173 60.7174 86.1434 60.4758C85.1644 58.0822 84.1983 55.6324 82.8311 53.4242C82.5723 53.0058 83.2063 52.6565 83.478 53.0447C85.0523 55.2658 86.4841 57.5776 87.2907 60.2084C87.8427 60.092 88.3948 59.9885 88.9555 59.9022C90.258 59.6995 91.9443 59.6176 92.1384 61.3255C92.2117 61.9854 92.0133 62.6366 91.7545 63.2361C91.3276 64.2238 90.8101 65.1813 90.3399 66.1474C89.4299 68.0062 88.5198 69.8694 87.6055 71.7283C83.9438 79.2112 80.4158 86.7934 76.2927 94.0391C73.9594 98.1407 71.363 102.1 68.6631 105.973C68.1887 106.654 67.0673 106.02 67.5331 105.313L67.5418 105.309Z" fill="#A4B6DA"/>
<path d="M91.5476 89.9893C91.9487 88.648 92.5526 87.3368 93.0011 86.0085C93.1521 85.5599 93.8982 85.603 93.868 86.1249C93.7861 87.587 93.5057 89.213 92.7984 90.5155C92.4318 91.1926 91.3277 90.7311 91.5476 89.9893Z" fill="#A4B6DA"/>
<path d="M35.682 81.0614C35.7079 80.2506 36.8379 80.2851 36.9198 81.0614C37.0967 82.7219 37.5237 84.2444 38.1059 85.8014C38.3992 86.582 37.101 87.1384 36.7516 86.375C35.9926 84.7274 35.6302 82.8729 35.6863 81.0614H35.682Z" fill="#A4B6DA"/>
<path opacity="0.5" d="M93.7471 83.2956C95.7009 75.9765 96.9646 68.5367 97.8272 61.0192C97.8703 60.6268 98.4784 60.6095 98.4526 61.0192C98.004 68.6273 96.6282 76.1922 94.6658 83.55C94.5062 84.1409 93.5876 83.8908 93.7471 83.2956Z" fill="#A4B6DA"/>
<path opacity="0.5" d="M33.1807 56.8142C33.2022 56.3398 33.8535 56.3571 33.9052 56.8142C34.0864 58.5135 34.1123 60.2301 34.2546 61.9337C34.4012 63.7235 34.5953 65.5134 34.8368 67.2947C35.0697 69.0198 35.3458 70.7407 35.6606 72.4572C35.9798 74.1867 36.4585 75.9033 36.7173 77.6414C36.7992 78.1978 36.0358 78.4393 35.859 77.8786C35.3328 76.2138 35.074 74.4196 34.7678 72.7031C34.4616 70.9822 34.1985 69.2484 33.9742 67.5146C33.5214 64.0168 33.034 60.3508 33.185 56.8185L33.1807 56.8142Z" fill="#A4B6DA"/>
<path d="M73.5367 44.5396C73.8688 44.5396 76.6895 44.8717 77.3537 48.5204C78.0179 52.1692 77.1897 67.9286 73.8688 79.8712C70.5521 91.8137 66.9034 103.756 66.5713 106.245C66.2392 108.733 64.0827 108.069 64.0827 108.069C64.0827 108.069 63.9189 104.252 61.9263 97.6189C59.9337 90.9856 57.4494 77.5465 57.2812 69.0888C57.113 60.6311 57.6133 47.6923 58.2775 45.8636C58.9417 44.0393 62.4265 43.2112 62.4265 43.2112L73.541 44.5396H73.5367Z" fill="white"/>
<path d="M76.241 48.2488C76.241 48.2488 76.6119 46.3899 73.4548 45.6481C70.2934 44.9062 57.4711 43.2328 59.1402 47.3215C60.8136 51.4101 76.241 48.2488 76.241 48.2488Z" fill="#54221C"/>
<path d="M60.8136 42.1114C60.8136 42.1114 61.3699 46.0146 59.1402 47.3172C59.1402 47.3172 60.9991 53.2647 68.4346 56.6115C68.4346 56.6115 72.5232 54.9381 74.3821 52.3374C76.241 49.7367 76.241 48.2488 76.241 48.2488C76.241 48.2488 73.2651 47.3215 74.0112 42.8576C74.753 38.398 60.8136 42.1158 60.8136 42.1158V42.1114Z" fill="#D3857A"/>
<path d="M60.6756 44.9881C61.0163 43.5605 60.8136 42.1157 60.8136 42.1157C60.8136 42.1157 65.4802 40.8736 69.267 40.6881L72.1394 40.8391C73.4117 41.1065 74.201 41.7103 74.0069 42.8618C73.8646 43.7072 73.8603 44.4231 73.9379 45.0356C73.3643 46.3337 71.6822 49.0552 67.5547 49.3528C63.4833 49.6461 61.4433 46.5666 60.6713 44.9924L60.6756 44.9881Z" fill="#C3594B"/>
<path d="M64.0009 71.9915C64.4969 68.1745 66.4076 63.1154 66.4076 63.1154C66.4076 63.1154 63.837 59.2165 64.0009 58.3884C64.1648 57.5604 68.15 56.3959 68.15 56.3959C68.15 56.3959 71.6349 58.8844 71.6349 59.5486C71.6349 60.2128 68.9824 62.8653 68.9824 63.0335C68.9824 63.2017 72.1351 70.4992 72.1351 73.3198C72.1351 74.8941 72.4457 79.8928 72.7217 83.9944C69.763 94.4489 66.8733 104.045 66.5801 106.249C66.4593 107.151 66.1014 107.634 65.6916 107.892C65.6657 107.565 65.6657 107.327 65.6657 107.327C65.6657 107.327 63.5093 75.8084 64.0052 71.9958L64.0009 71.9915Z" fill="#54221C"/>
<path d="M57.4237 63.0895C58.614 60.9072 61.0034 59.1906 63.1685 58.0908C63.7896 57.776 64.5228 58.1124 63.9147 58.4747C62.858 59.1044 61.6978 60.3983 60.805 61.2393C59.9295 62.0631 59.2696 63.0162 58.4717 63.9047C57.9499 64.4826 57.07 63.7451 57.4237 63.0939V63.0895Z" fill="#F3F4F6"/>
<path d="M72.5317 59.4796C73.5022 60.0015 74.382 60.5665 75.1368 61.3816C75.801 62.1019 76.5902 62.9429 76.6937 63.9435C76.7498 64.4826 76.2064 65.1037 75.8656 64.7716C75.2359 64.1592 74.6796 62.9041 74.1189 62.2183C73.5367 61.5067 72.838 60.7908 72.066 60.2775C71.57 59.9497 72.0056 59.1907 72.5317 59.4796Z" fill="#F3F4F6"/>
<path d="M79.8381 25.9465C79.8381 25.9465 81.6452 22.5091 81.8264 20.8788C82.0075 19.2485 80.5583 19.4296 80.5583 19.4296C80.5583 19.4296 82.3698 14.3619 79.4715 9.66084C76.3403 4.57157 72.5967 5.49885 72.9589 7.12914C72.9589 7.12914 68.6158 3.69173 61.3787 4.77859C54.1416 5.86545 55.2285 11.2911 56.8545 12.5591C56.8545 12.5591 55.2241 13.1026 55.0473 16.54C54.8662 19.9774 56.3153 25.4074 56.3153 25.4074L79.8381 25.9508V25.9465Z" fill="#0C111D"/>
<path d="M79.6138 26.2095C79.6138 26.2095 81.9557 14.4913 76.9355 10.9762C69.7415 5.94304 67.7619 5.80503 59.8649 10.808C54.8446 13.9867 57.0184 30.8934 57.0184 30.8934L79.6138 26.2052V26.2095Z" fill="#0C111D"/>
<path d="M79.0186 25.6877C79.0186 25.6877 80.7869 24.2041 81.9557 25.7093C83.1288 27.2145 80.7826 33.7443 78.6088 33.2397C76.4308 32.7394 79.0186 25.6877 79.0186 25.6877Z" fill="#D3857A"/>
<path d="M57.4885 25.4375C57.4885 25.4375 55.841 23.8202 54.5557 25.2305C53.2704 26.6408 55.1078 33.3302 57.316 32.9981C59.5242 32.666 57.4885 25.4375 57.4885 25.4375Z" fill="#D3857A"/>
<path d="M79.2817 23.3674C79.4973 23.3846 79.3248 29.4745 79.3118 29.8627C79.1825 33.3907 78.8892 36.9359 77.5479 40.2396C77.0432 41.4817 76.2712 42.8058 74.9687 43.125C74.7531 43.1767 74.5245 43.2026 74.3476 43.332C74.2053 43.4355 74.1147 43.5907 74.0155 43.7374C71.6909 47.2567 66.8561 46.7823 63.3842 45.6265C61.879 45.1262 60.4816 44.0307 59.5284 42.7713C58.6356 41.5939 58.0879 40.1318 58.1224 38.6524C58.1224 38.467 58.1396 38.2729 58.0793 38.1004C58.0102 37.8934 57.855 37.7338 57.717 37.5613C56.9924 36.6469 56.8112 35.2754 56.7638 34.1454C56.6948 32.4246 56.6474 30.6951 56.7767 28.9742C56.8975 27.3741 56.8717 25.7869 57.1908 24.1998C57.6911 21.6897 79.286 23.3631 79.286 23.3631L79.2817 23.3674Z" fill="#0C111D"/>
<path d="M57.6049 26.6279C57.6049 26.6279 57.6049 32.4849 59.4465 33.8262C61.2882 35.1632 64.4452 33.3259 66.813 33.3259C70.3281 33.3259 72.0015 35.1675 74.1795 34.8311C76.3575 34.4947 77.8628 32.8213 78.1949 30.8158C78.4191 29.4702 78.6952 28.1331 78.8461 26.7789C78.9151 26.1578 79.0531 25.4246 78.8936 24.8122C78.6995 24.0833 78.1474 23.5097 77.6514 22.9706C77.0606 22.3322 76.4524 21.5947 76.4654 20.7278C76.4697 20.3785 76.5775 20.0378 76.6853 19.7057C76.832 19.2571 76.9743 18.8043 77.1209 18.3557C77.2805 17.864 77.4099 17.2559 77.0433 16.8936C76.7845 16.6392 76.3791 16.6262 76.0168 16.665C75.2318 16.7513 74.4814 17.0877 73.7051 17.1136C72.8166 17.1438 71.9325 17.174 71.044 17.1998C70.3324 17.2214 69.6164 17.2473 68.9091 17.1912C67.0804 17.0489 65.3337 16.3847 63.5222 16.1087C62.8882 16.0138 62.237 15.962 61.6073 16.0871C60.8569 16.2381 60.1625 16.6349 59.632 17.1826C59.3301 17.4931 59.0627 17.877 59.0368 18.3126C58.9721 19.2399 59.8908 19.7962 59.9339 20.7106C59.9641 21.405 59.5975 22.0476 59.2266 22.6126C58.3942 23.8849 57.51 25.0192 57.6092 26.6322L57.6049 26.6279Z" fill="#D3857A"/>
<path d="M74.1795 25.5842C75.6804 25.4505 75.7926 27.8312 74.3952 27.8959C73.6663 27.9304 73.2178 27.4215 73.1401 26.7443C73.0798 26.2268 73.6792 25.6316 74.1795 25.5842Z" fill="#54221C"/>
<path d="M61.3571 27.4862C60.3479 26.3648 62.1895 24.8467 63.078 25.9292C63.5438 26.4942 63.4058 27.1541 62.9055 27.6242C62.526 27.9822 61.6892 27.8614 61.3528 27.4862H61.3571Z" fill="#54221C"/>
<path d="M66.7483 31.9285C66.7224 31.6438 66.9424 31.3678 67.2314 31.3462C67.516 31.3247 67.8007 31.2988 68.0853 31.2772C68.3743 31.2513 68.6417 31.4713 68.6676 31.7603C68.6935 32.0449 68.4735 32.3209 68.1846 32.3425C67.8999 32.3641 67.6152 32.39 67.3306 32.4115C67.0416 32.4374 66.7742 32.2174 66.7483 31.9285Z" fill="#C3594B"/>
<path d="M72.0919 21.0987C73.1831 21.3661 74.2311 21.7802 75.2576 22.233C75.5595 22.3667 75.8658 22.5047 76.103 22.7333C76.3359 22.9533 76.5386 23.3371 76.4739 23.6735C76.4092 24.0013 76.0642 24.1781 75.7666 24.0315C75.0851 23.6908 74.4339 23.2897 73.7395 22.9791C73.0537 22.6729 72.3248 22.5134 71.6261 22.2416C70.9706 21.9872 71.5011 20.9607 72.0359 21.0901C72.0531 21.0944 72.0747 21.0987 72.0919 21.103V21.0987Z" fill="#0C111D"/>
<path d="M65.4717 20.1111C65.5019 20.0895 65.5277 20.0679 65.5536 20.0421C66.1919 19.49 65.3466 18.9164 64.7644 18.9164C64.3072 18.9164 63.9622 19.1579 63.5697 19.3606L62.168 20.0766C61.7324 20.3008 61.2278 20.4777 60.887 20.8443C60.6369 21.1074 60.3479 21.9613 61.0121 21.8147C61.9524 21.612 62.8322 21.1117 63.7293 20.7666C64.2899 20.551 64.98 20.4734 65.4717 20.1068V20.1111Z" fill="#0C111D"/>
<path d="M87.6401 120.257C87.6401 120.257 97.0941 116.531 102.731 115.203C108.372 113.874 112.021 111.554 113.345 107.737C114.674 103.92 113.677 101.104 113.013 100.271C112.349 99.4432 113.345 97.7827 112.849 96.2905C112.353 94.7982 104.555 91.3133 101.735 92.3096C98.9141 93.3059 95.9296 101.099 95.9296 101.099L85.419 102.501L87.6358 120.253L87.6401 120.257Z" fill="#C9D3E9"/>
<path d="M95.1964 100.668C95.2611 100.659 95.3301 100.655 95.3948 100.647C95.3862 100.56 95.4078 100.461 95.4638 100.366C96.4472 98.6928 98.0775 97.8992 99.7811 97.1099C101.472 96.325 103.296 95.7255 105.181 96.0231C105.616 96.0921 105.513 96.8167 105.077 96.7908C103.292 96.6873 101.722 97.2436 100.135 98.0114C99.1729 98.4771 98.2154 98.9257 97.4262 99.5856C97.9825 99.3785 98.5648 99.2449 99.1384 99.1758C99.7853 99.0982 100.376 99.081 100.967 98.7791C101.411 98.5548 101.851 98.3305 102.317 98.1494C104.197 97.4205 106.617 97.1358 108.549 97.8475C108.929 97.9898 108.916 98.6669 108.446 98.6152C106.319 98.3866 104.344 98.3607 102.373 99.3527C101.575 99.7538 100.946 100.233 100.036 100.34C98.8624 100.474 97.9351 100.724 96.8827 101.237C96.8008 101.337 96.6758 101.397 96.5377 101.414C96.0935 101.462 95.6492 101.501 95.2007 101.539C94.9678 101.561 94.7651 101.324 94.7651 101.104C94.7651 100.849 94.9635 100.694 95.2007 100.668H95.1964Z" fill="#A4B6DA"/>
<path d="M44.032 120.452C44.032 120.452 32.4 114.707 28.7513 113.046C25.1025 111.386 14.3202 107.241 13.4921 102.432C12.664 97.6232 14.1563 93.4741 15.6486 91.9818C17.1408 90.4896 18.8013 88.6652 19.4655 87.3368C20.1297 86.0084 31.9083 97.6232 31.9083 97.6232C31.9083 97.6232 33.7327 98.6194 35.225 98.6194C36.7173 98.6194 37.5453 99.9478 39.2058 100.28C40.8663 100.612 47.1675 101.608 47.1675 101.608L44.0363 120.46L44.032 120.452Z" fill="#C9D3E9"/>
<path d="M16.1317 94.7895C16.4595 93.6078 18.5599 93.3404 19.5605 93.1592C21.1563 92.8703 22.7866 92.8185 24.3953 93.0255C27.0952 93.3749 30.3903 94.479 31.9559 96.8813C32.0594 97.0409 32.0723 97.2048 32.0249 97.3471C32.3182 97.4679 32.6158 97.58 32.9177 97.6749C33.9054 97.994 34.9577 98.0242 35.9454 98.3261C36.9029 98.6151 37.718 99.2146 38.6495 99.551C39.676 99.9262 40.7931 99.9435 41.867 100.069C43.0013 100.202 44.1184 100.375 45.2354 100.634C45.7443 100.754 45.6107 101.496 45.1147 101.518C43.9761 101.565 42.8504 101.531 41.7118 101.444C40.6637 101.367 39.5639 101.319 38.546 101.03C37.6231 100.767 36.8338 100.215 35.9454 99.8831C34.9707 99.5208 33.914 99.5122 32.9134 99.262C31.9473 99.0162 31.0588 98.5461 30.1186 98.2183C29.0749 97.8517 27.9966 97.5972 26.9054 97.4204C24.6713 97.0581 22.3941 97.0581 20.1385 97.0236C19.1249 97.0064 19.2759 95.954 20.2937 95.9626C22.4933 95.9799 24.542 95.5227 26.7243 95.8333C27.7465 95.9799 28.7643 96.1826 29.7563 96.4802C29.312 96.1136 28.8377 95.7815 28.2899 95.5012C27.2031 94.9405 26.004 94.5868 24.8007 94.3669C23.5111 94.134 22.1871 94.0736 20.8803 94.1857C20.2506 94.2418 19.6295 94.3453 19.0128 94.479C18.5556 94.5782 17.2358 94.7162 17.0073 95.1561C16.7528 95.6435 15.9851 95.3071 16.1317 94.7852V94.7895Z" fill="#A4B6DA"/>
<path d="M65.7045 36.6124C67.145 36.4614 68.5941 36.3579 70.039 36.3406C70.8326 36.332 70.6342 37.1946 69.8579 37.2507C68.3699 37.3585 67.3262 37.2765 65.8511 37.0695C65.2258 36.9833 65.174 36.6684 65.7045 36.6124Z" fill="white"/>
</svg>
