<svg width="59" height="38" viewBox="0 0 59 38" fill="none" xmlns="http://www.w3.org/2000/svg">
<g clip-path="url(#clip0_0_17919)">
<path fill-rule="evenodd" clip-rule="evenodd" d="M38.5999 15.1239C39.6329 15.1239 40.4705 14.4164 40.4705 13.5434C40.4705 12.6708 39.6329 11.9644 38.5999 11.9644C37.5669 11.9644 36.729 12.6708 36.729 13.5434C36.7294 14.4164 37.5669 15.1239 38.5999 15.1239Z" fill="#005E9E"/>
<path fill-rule="evenodd" clip-rule="evenodd" d="M36.2441 23.2982C36.2441 22.8299 35.9129 22.4244 35.4542 22.4174C34.2616 22.3979 31.0783 22.4174 31.0783 22.4174C31.0783 22.4174 31.1187 18.1228 31.1154 15.5177H31.1168C31.1225 14.9899 31.1377 14.0574 31.1305 13.7534C31.104 12.6892 29.5121 12.3567 28.6149 12.3144C27.8008 12.2755 27.8454 12.9796 27.8454 12.9796V23.5726C27.8454 24.2565 28.5918 24.419 28.5918 24.419H36.2528C36.2528 24.419 36.2441 23.8582 36.2441 23.2982Z" fill="#005E9E"/>
<path fill-rule="evenodd" clip-rule="evenodd" d="M46.8268 15.9936C46.4718 12.3531 48.63 12.5276 49.4263 12.7106C49.7258 12.7552 49.7292 12.453 49.7239 12.367C49.6918 12.0694 49.5333 11.8166 49.3159 11.6355C48.543 10.9916 47.1062 11.0732 47.1062 11.0732C44.4961 11.0732 43.6843 12.9944 43.6843 14.5651C43.6843 15.3741 43.6014 15.9936 43.6014 15.9936H42.8127C42.3616 15.9936 42.179 16.4623 42.179 16.7019V17.2814H43.5803V21.236C40.7622 23.6135 40.1894 22.2685 40.1894 21.6804C40.1897 20.6311 40.1932 18.6594 40.1932 17.3784C40.1932 16.3257 38.6603 15.982 37.7502 15.939C36.8382 15.8956 36.9682 16.6046 36.9682 16.6046V21.8892C36.9682 23.7247 37.7055 24.588 39.4947 24.588C41.2382 24.588 42.9715 23.2122 43.6238 22.4609C43.6238 22.4609 43.6238 23.9006 43.6514 24.981C43.6555 25.1412 43.6608 25.2719 43.6665 25.3602C43.71 26.0483 44.4046 25.9637 44.4046 25.9637C46.8839 25.9629 46.8268 24.2252 46.8268 24.2252V17.3256H48.3744C48.6826 17.3256 49.21 17.1672 49.21 16.5922C49.21 16.2418 49.2021 15.9936 49.2021 15.9936H46.8268Z" fill="#005E9E"/>
<path fill-rule="evenodd" clip-rule="evenodd" d="M58.0113 22.0288C57.142 22.5578 56.0984 22.9876 54.5368 22.9876C53.0599 22.9876 51.9766 22.1486 51.9766 20.4147C51.9766 19.6308 52.4644 17.6928 54.367 17.6928C55.1024 17.6782 55.5203 18.154 55.5203 18.7649C55.5203 19.563 54.6098 20.5225 52.6602 20.6352C52.9495 21.4767 53.886 21.689 54.6438 21.689C55.7766 21.689 58.4991 20.8721 58.276 18.3602C58.1024 16.4058 56.2413 15.8263 54.7187 15.8263C51.1538 15.8263 48.4276 17.9994 48.6813 20.9462C48.9584 24.1649 51.8563 24.5778 53.7688 24.5778C55.7078 24.5778 57.4838 23.7632 58.141 22.8566C58.2669 22.6825 58.4079 22.4489 58.4079 22.2452C58.4079 22.0191 58.231 21.8945 58.0113 22.0288Z" fill="#005E9E"/>
<path fill-rule="evenodd" clip-rule="evenodd" d="M33.0354 8.79747V5.52007H30.4468V8.79747H27.837V0.626953H30.4468V3.69549H33.0354V0.626953H35.658V8.79747H33.0354Z" fill="#ED1C24"/>
<path fill-rule="evenodd" clip-rule="evenodd" d="M41.6669 4.36674C41.6669 2.67243 41.3123 2.29846 40.1231 2.29846H39.4569V7.12717H40.1231C41.3123 7.12717 41.6669 6.70904 41.6669 5.01474V4.36674ZM40.035 8.94164C38.8788 8.94164 38.0457 8.89784 36.9243 8.79751V0.626994C38.0457 0.527417 38.8459 0.484741 40.035 0.484741C42.9226 0.484741 44.2336 1.58421 44.2336 4.36674L44.234 5.01474C44.234 7.84104 42.9559 8.94164 40.035 8.94164Z" fill="#ED1C24"/>
<path fill-rule="evenodd" clip-rule="evenodd" d="M47.8674 2.38677V3.83849H51.011V5.46579H47.8674V8.79747H45.2573V0.626953H51.2553V2.38677H47.8674Z" fill="#ED1C24"/>
<path fill-rule="evenodd" clip-rule="evenodd" d="M55.6123 8.99616C53.023 8.99616 51.7234 8.08316 51.7234 5.09135V4.32169C51.7234 1.34149 53.023 0.428833 55.6119 0.428833C56.2664 0.428833 57.577 0.549748 58.0213 0.670286V2.39753C57.4329 2.35299 56.6438 2.30919 55.933 2.30919C54.8784 2.30881 54.3558 2.62739 54.3558 4.32169V5.09135C54.3558 6.80809 54.8784 7.12703 55.933 7.12703C56.6438 7.12703 57.4329 7.08289 58.0213 7.03836V8.75436C57.577 8.88609 56.2664 8.99616 55.6123 8.99616Z" fill="#ED1C24"/>
<path fill-rule="evenodd" clip-rule="evenodd" d="M24.3064 24.4201V24.4198L17.4421 17.6234V17.6242H7.03979V7.32583H7.0406L0.176293 0.529907H0.175537V24.4201H24.3064Z" fill="#B11116"/>
<path fill-rule="evenodd" clip-rule="evenodd" d="M7.04054 7.32583H17.4421V17.6234L24.3064 24.4198V0.529907H0.17627L7.04054 7.32583Z" fill="#ED1C24"/>
<path fill-rule="evenodd" clip-rule="evenodd" d="M6.44981 33.9741C7.07936 33.2193 7.0601 33.0487 7.0601 33.0487C7.0601 33.0487 6.90732 32.5575 6.3636 32.5384C5.81949 32.5197 5.18993 33.1523 5.06591 33.8801C4.94189 34.6071 5.56199 35.0413 6.44981 33.9741ZM13.2147 30.9328C13.347 31.0032 13.0415 31.6741 13.0415 31.6741C11.7389 31.3656 10.5845 33.1201 10.3796 33.7213C10.144 34.4128 10.1617 34.9619 10.1617 34.9619L9.64376 35.1566C9.38135 35.0488 9.6237 34.0493 9.6237 34.0493C7.2401 36.2647 7.01889 33.9875 7.01889 33.9875C5.92158 35.3595 4.3422 35.5051 4.41555 34.1859C4.48437 32.9565 5.7087 32.1161 6.52921 32.1379C7.34898 32.1611 7.68513 32.7757 7.68513 32.7757C7.62311 33.0415 7.25141 34.5404 8.21521 34.5348C8.61034 34.5322 9.67285 33.5245 9.67285 33.5245C9.67285 33.5245 9.71063 33.2991 9.72315 33.0348C9.73487 32.7694 9.71709 32.3591 9.71709 32.3591C9.71709 32.3591 10.091 32.2169 10.2862 32.2363C10.4812 32.255 10.4037 32.4478 10.4037 32.4478C10.4037 32.4478 10.1153 33.3563 10.1202 33.4129C10.1243 33.4709 10.1436 33.4619 10.1436 33.4619C11.4265 30.7984 13.0819 30.8621 13.2147 30.9328Z" fill="#ED1C24"/>
<path fill-rule="evenodd" clip-rule="evenodd" d="M39.5479 32.8497C39.3302 33.1267 39.256 33.5699 39.256 33.5699C39.5827 33.5355 39.9616 33.4277 40.2179 33.3289C40.6894 33.1481 40.7786 32.5532 40.3937 32.4772C40.0641 32.4102 39.7835 32.5521 39.5479 32.8497ZM41.5096 34.1588C41.5682 34.1767 41.6888 34.3519 41.6699 34.456C41.5765 34.696 40.8052 35.0501 39.9986 35.0509C39.4651 35.0423 38.5826 34.8573 38.6473 33.8657C38.6681 33.592 38.7494 33.3569 38.8405 33.1608C39.1475 32.5045 39.6874 32.2433 40.0304 32.1395C40.2043 32.0871 40.4467 32.0635 40.6081 32.0793C40.9186 32.1073 41.3633 32.2347 41.3243 32.7314C41.2608 33.5317 39.2527 33.8571 39.2527 33.8571C39.2518 33.9361 39.2957 34.5923 40.2282 34.6492C41.0434 34.699 41.4491 34.1393 41.5096 34.1588Z" fill="#ED1C24"/>
<path fill-rule="evenodd" clip-rule="evenodd" d="M47.6272 30.4625C47.7607 30.6853 47.6337 30.8773 47.4178 31.0454C47.1781 31.2322 46.8003 31.2281 46.7054 31.0405C46.6093 30.853 46.739 30.5715 46.9932 30.4117C47.248 30.2525 47.5202 30.2825 47.6272 30.4625Z" fill="#ED1C24"/>
<path fill-rule="evenodd" clip-rule="evenodd" d="M44.4798 32.2399C44.797 32.1433 45.4803 31.8595 45.348 32.1789C45.2164 32.4975 45.053 33.4273 45.005 33.8237C44.957 34.2209 44.7724 35.6191 44.6772 36.1151C44.5815 36.6111 44.1146 37.5089 43.3107 37.5643C42.6913 37.6073 42.2879 37.4313 42.1899 37.1757C42.0928 36.9207 42.3253 36.4555 42.4119 36.5041C42.4993 36.5547 42.8411 37.2135 43.3897 37.1779C43.9372 37.1427 44.0975 36.3207 44.1905 35.4349C44.2836 34.5496 44.45 32.4394 44.4798 32.2399Z" fill="#ED1C24"/>
<path fill-rule="evenodd" clip-rule="evenodd" d="M47.0878 32.4039C47.0878 32.4039 45.947 34.4291 46.9328 34.4628C47.7642 34.4912 48.3926 33.7018 48.3926 33.7018C48.3926 33.7018 48.7621 32.3249 48.8479 32.2901C48.9352 32.2538 49.4102 32.423 49.3678 32.5784C49.3247 32.7344 48.5209 34.3258 49.3364 34.4531C50.152 34.5807 50.7177 33.6737 50.7177 33.6737C50.7177 33.6737 51.2467 32.2785 51.3041 32.2639C51.3616 32.25 51.9703 32.356 51.9208 32.6075C51.8346 33.0466 51.1207 33.8496 51.092 33.9679C50.8542 34.4152 50.6662 35.2998 50.5963 35.8423C50.5305 36.3476 50.5751 37.2618 50.4889 37.3827C50.4031 37.5033 49.9803 37.549 49.8087 37.4003C49.8087 37.4003 49.9164 36.302 50.1097 35.5795C50.3025 34.8574 50.4674 34.404 50.4674 34.404C50.4674 34.404 49.6366 35.1478 49.0146 35.055C48.3926 34.9626 48.3926 34.255 48.3926 34.255C48.3926 34.255 47.5389 35.067 46.6654 35.0247C45.7924 34.9824 45.9043 33.9642 45.9546 33.7238C46.0041 33.4835 46.1859 32.615 46.3762 32.3328C46.4745 32.1872 46.6049 32.2193 46.7335 32.2616C46.8624 32.3047 47.0878 32.4042 47.0878 32.4039Z" fill="#ED1C24"/>
<path fill-rule="evenodd" clip-rule="evenodd" d="M54.4247 34.3044C54.9438 33.8406 55.0039 33.1073 54.7169 32.761C54.4371 32.4237 53.7542 32.4301 53.1697 32.9347C52.6422 33.3892 52.5586 34.1382 52.8358 34.4407C53.1716 34.808 53.9047 34.7686 54.4247 34.3044ZM55.4089 32.6865C55.7892 33.3289 55.3627 34.2752 54.4564 34.8016C53.5504 35.3272 52.5094 35.2317 52.1272 34.5912C51.813 34.0634 52.165 32.9868 53.0797 32.4765C54.0953 31.9105 55.0285 32.0449 55.4089 32.6865Z" fill="#ED1C24"/>
<path fill-rule="evenodd" clip-rule="evenodd" d="M57.8809 35.3778C57.7293 35.8783 56.9591 35.6192 56.8906 35.377C56.6551 34.5595 58.0526 34.6729 57.8809 35.3778Z" fill="#ED1C24"/>
<path fill-rule="evenodd" clip-rule="evenodd" d="M0.22998 34.8556C0.192547 34.8428 0.172507 34.8039 0.17591 34.7545C0.186875 34.5932 0.233005 34.1716 0.558561 34.1716C0.981669 34.1716 1.68723 34.7313 2.41774 34.6317C2.41774 34.6317 3.12973 34.6224 3.17776 33.9826C3.22578 33.3432 2.43817 32.8322 2.08803 32.5548C1.75189 32.2879 0.90945 31.6496 1.01154 30.8186C1.13329 29.8296 2.33342 29.6465 2.73612 29.6416C3.28249 29.6342 4.37297 29.8748 4.25727 30.427C4.23231 30.6138 4.01338 30.8302 3.80013 30.877C3.7419 30.7946 3.7143 30.7591 3.66704 30.6984C3.50747 30.4933 3.15166 29.9943 2.54215 30.0254C1.78554 30.0628 1.68799 30.7022 1.68534 30.9208C1.68156 31.2038 1.8139 31.5314 2.85711 32.3268C3.85193 33.0864 3.9336 33.585 3.85949 33.9826C3.78576 34.3809 3.24128 35.1045 2.01316 35.1112C0.99717 35.1177 0.409963 34.9158 0.22998 34.8556Z" fill="#ED1C24"/>
<path fill-rule="evenodd" clip-rule="evenodd" d="M29.6579 33.9749C30.3064 33.2341 30.3196 33.0484 30.3196 33.0484C30.3196 33.0484 30.1158 32.5572 29.5721 32.5386C29.028 32.5194 28.3984 33.1525 28.274 33.8798C28.1508 34.6072 28.7731 34.9819 29.6579 33.9749ZM17.8543 32.2754C17.8513 32.4172 16.7434 34.4836 17.9004 34.5084C18.6729 34.511 19.9604 33.3711 19.9604 33.3711C19.9604 33.3711 20.2243 32.3794 20.2055 32.3622C20.1865 32.3442 19.5127 32.3996 19.4927 32.3491C19.4723 32.299 19.5498 32.0144 19.5861 31.9871C19.6231 31.9583 20.2622 32.0114 20.2682 31.9722C20.2746 31.934 20.3442 31.2605 20.2685 31.1078C20.2685 31.1078 20.6346 30.8334 20.9651 30.897C21.0736 30.9288 21.1987 31.0209 20.931 31.9242C20.931 31.9242 21.6854 31.9066 22.0102 31.7798C22.0771 31.8531 22.13 32.0762 22.0158 32.2068C21.902 32.3386 20.8153 32.3312 20.8153 32.3312C20.8153 32.3312 20.4281 33.419 20.376 34.1206C20.3605 34.3044 20.4728 34.6356 20.9681 34.5948C21.6063 34.5417 22.417 33.8787 22.7105 33.5216C22.7105 33.5216 23.0118 32.135 23.1668 31.1085C23.1902 30.8584 23.244 30.2146 23.1872 30.1C23.1872 30.1 23.5706 29.8444 23.9007 29.9084C24.0062 29.939 24.0528 30.1334 23.8171 31.0999C23.6598 31.9168 23.1593 33.973 23.2572 34.2145C23.4046 34.0135 24.9527 32.1084 25.4366 32.0044C25.7017 31.9568 25.8677 32.2312 25.8401 32.4019C25.8125 32.5715 25.3897 34.4792 26.4314 34.4698C27.1994 34.4657 27.8029 33.4523 27.8029 33.4523C27.8029 33.4523 28.3538 32.1298 29.7562 32.1226C30.5866 32.1582 30.9435 32.7665 30.9435 32.7665C30.9435 32.7665 30.5616 34.4421 31.595 34.4818C32.2748 34.4885 32.6968 33.9644 32.6968 33.9644C32.6968 33.9644 32.9547 34.149 32.9547 34.2126C32.9547 34.2759 32.2034 34.9838 31.2804 34.977C30.3574 34.9703 30.2928 33.9644 30.2928 33.9644C30.2928 33.9644 29.3838 35.0197 28.3753 35.0841C27.6524 35.1335 27.6456 34.219 27.6456 34.219C27.6456 34.219 27.0742 34.977 26.0802 34.977C25.0854 34.977 24.9674 33.915 25.1137 32.8736C25.1254 32.8028 24.8974 32.9308 24.7193 33.1012C24.542 33.2704 23.8675 33.9528 23.4663 34.9418C23.4122 35.0126 22.7187 34.9202 22.7169 34.8C22.715 34.6794 22.7607 34.1273 22.7263 34.1206C22.6915 34.1127 21.6335 35.0377 20.4766 35.0688C19.4484 35.098 19.8492 33.9918 19.8492 33.9918C19.8492 33.9918 18.7221 34.888 17.7095 34.9508C16.6969 35.0148 16.8183 33.9573 16.8183 33.9573C16.8183 33.9573 15.9395 34.995 15.0835 34.9561C13.8679 34.9003 14.6967 32.7078 14.9859 32.2484C14.9897 32.242 15.0068 32.2286 15.0211 32.2286C15.1213 32.2301 15.7342 32.1076 15.7304 32.2162C15.7267 32.3394 15.4207 32.6362 15.2634 32.9904C15.1061 33.3445 14.6521 34.2227 15.4132 34.3508C16.1751 34.4776 16.8032 33.1888 16.8032 33.1888C16.8032 33.1888 17.0232 32.5243 17.1401 32.2458C17.351 32.1938 17.8555 32.1664 17.8543 32.2754Z" fill="#ED1C24"/>
<path fill-rule="evenodd" clip-rule="evenodd" d="M36.0639 31.0442C35.938 31.9446 35.6056 33.8848 35.5947 33.9701C35.5818 34.0686 35.6404 34.0266 35.6404 34.0266C36.0881 33.2259 37.5298 31.8835 37.9087 31.8835C38.2747 31.8835 38.1934 32.384 38.1934 32.384C37.7926 32.2781 36.5195 33.4408 36.5195 33.4408C36.5195 33.4408 36.8031 33.7384 37.3529 34.17C37.9023 34.6024 38.6544 34.8428 38.6479 34.9064C38.6419 34.97 38.3 35.2538 38.1469 35.268C37.8036 35.3032 36.2193 33.7942 36.2193 33.7942C35.8057 34.1412 35.6071 34.8079 35.5697 34.8854C35.5319 34.9629 35.2279 34.9487 35.0502 34.942C34.914 34.9367 35.3579 32.4855 35.4835 30.9465C35.51 30.6182 35.4948 30.2057 35.4435 30.1028C35.4438 30.1028 35.8068 29.804 36.1365 29.8676C36.2435 29.8991 36.1392 30.5056 36.0639 31.0442Z" fill="#ED1C24"/>
<path fill-rule="evenodd" clip-rule="evenodd" d="M57.8412 33.3928C57.8809 33.9106 58.1244 33.8627 58.0729 33.9829C57.9872 34.1824 57.8086 34.3089 57.6268 34.2883C57.1534 34.2352 57.2067 33.2327 57.2914 32.5438C57.3977 31.6746 57.5871 31.1202 57.64 30.5676C57.6699 30.2588 57.6585 29.8714 57.6091 29.7744C57.6091 29.7744 58.0356 29.509 58.3615 29.5682C58.467 29.5981 58.3577 30.1678 58.2772 30.6744C58.2072 31.1194 57.7274 32.6502 57.8412 33.3928Z" fill="#ED1C24"/>
<path fill-rule="evenodd" clip-rule="evenodd" d="M45.5672 30.3146C45.7007 30.538 45.5611 30.7174 45.3453 30.8854C45.1055 31.0726 44.7403 31.0804 44.6454 30.8925C44.549 30.7054 44.6787 30.4238 44.9335 30.264C45.188 30.1045 45.4602 30.1348 45.5672 30.3146Z" fill="#ED1C24"/>
</g>
<defs>
<clipPath id="clip0_0_17919">
<rect width="58.5833" height="38" fill="white"/>
</clipPath>
</defs>
</svg>
