<svg width="330" height="343" viewBox="0 0 330 343" fill="none" xmlns="http://www.w3.org/2000/svg">
<mask id="mask0_0_1" style="mask-type:alpha" maskUnits="userSpaceOnUse" x="0" y="38" width="330" height="305">
<rect y="38" width="330" height="305" rx="36" fill="#D1EDFF"/>
</mask>
<g mask="url(#mask0_0_1)">
<path d="M136.597 231.63C136.597 232.575 137.344 233.347 138.268 233.347H153.133C154.057 233.347 154.804 232.575 154.804 231.63V216.278C154.804 215.324 154.057 214.553 153.133 214.553H138.268C137.344 214.553 136.597 215.324 136.597 216.278V231.63ZM138.268 213.686H153.133C154.519 213.686 155.645 214.848 155.645 216.278V231.63C155.645 233.052 154.519 234.214 153.133 234.214H138.268C136.882 234.214 135.757 233.052 135.757 231.63V216.278C135.757 214.848 136.882 213.686 138.268 213.686Z" fill="#D1D3D4"/>
<path d="M139.973 221.765L145.171 227.131L146.238 228.241C146.725 228.735 147.506 228.735 147.985 228.241L149.052 227.131L151.428 224.687C151.697 224.409 151.823 224.046 151.823 223.69C151.823 223.325 151.697 222.962 151.428 222.684C150.891 222.13 150.017 222.13 149.489 222.684L147.531 224.704C147.296 224.938 146.927 224.938 146.7 224.704L141.913 219.771C141.644 219.494 141.291 219.355 140.948 219.355C140.595 219.355 140.242 219.494 139.973 219.771C139.444 220.318 139.444 221.219 139.973 221.765Z" fill="white"/>
<path d="M139.973 221.765L145.171 227.131L146.238 228.241C146.725 228.735 147.506 228.735 147.985 228.241L149.052 227.131L151.428 224.687C151.697 224.409 151.823 224.046 151.823 223.69C151.823 223.325 151.697 222.962 151.428 222.684C150.891 222.13 150.017 222.13 149.489 222.684L147.531 224.704C147.296 224.938 146.927 224.938 146.7 224.704L141.913 219.771C141.644 219.494 141.291 219.355 140.948 219.355C140.595 219.355 140.242 219.494 139.973 219.771C139.444 220.318 139.444 221.219 139.973 221.765Z" fill="#00C853"/>
<path d="M81.3009 230.937C81.3009 231.682 81.5954 232.358 82.0742 232.844C82.5449 233.338 83.1993 233.642 83.9216 233.642H121.505C122.949 233.642 124.125 232.428 124.125 230.937C124.125 230.191 123.831 229.507 123.36 229.021C122.882 228.527 122.227 228.223 121.505 228.223H83.9216C82.4778 228.223 81.3009 229.437 81.3009 230.937Z" fill="#D1D3D4"/>
<path d="M51.0839 216.825C51.0839 217.57 51.3775 218.246 51.8563 218.741C52.327 219.226 52.9822 219.529 53.7037 219.529H121.505C122.949 219.529 124.125 218.324 124.125 216.825C124.125 216.079 123.831 215.403 123.36 214.918C122.882 214.424 122.227 214.12 121.505 214.12H53.7037C52.2591 214.12 51.0839 215.334 51.0839 216.825Z" fill="#D2D5DA"/>
<path d="M136.597 196.956C136.597 197.901 137.344 198.672 138.268 198.672H153.133C154.057 198.672 154.804 197.901 154.804 196.956V181.603C154.804 180.65 154.057 179.879 153.133 179.879H138.268C137.344 179.879 136.597 180.65 136.597 181.603V196.956ZM138.268 179.011H153.133C154.519 179.011 155.645 180.173 155.645 181.603V196.956C155.645 198.377 154.519 199.539 153.133 199.539H138.268C136.882 199.539 135.757 198.377 135.757 196.956V181.603C135.757 180.173 136.882 179.011 138.268 179.011Z" fill="#D1D3D4"/>
<path d="M139.973 187.092L145.171 192.457L146.238 193.567C146.725 194.062 147.506 194.062 147.985 193.567L149.052 192.457L151.428 190.013C151.697 189.736 151.823 189.371 151.823 189.016C151.823 188.652 151.697 188.287 151.428 188.01C150.891 187.455 150.017 187.455 149.489 188.01L147.531 190.029C147.296 190.264 146.927 190.264 146.7 190.029L141.913 185.097C141.644 184.82 141.291 184.681 140.948 184.681C140.595 184.681 140.242 184.82 139.973 185.097C139.444 185.644 139.444 186.546 139.973 187.092Z" fill="white"/>
<path d="M139.973 187.092L145.171 192.457L146.238 193.567C146.725 194.062 147.506 194.062 147.985 193.567L149.052 192.457L151.428 190.013C151.697 189.736 151.823 189.371 151.823 189.016C151.823 188.652 151.697 188.287 151.428 188.01C150.891 187.455 150.017 187.455 149.489 188.01L147.531 190.029C147.296 190.264 146.927 190.264 146.7 190.029L141.913 185.097C141.644 184.82 141.291 184.681 140.948 184.681C140.595 184.681 140.242 184.82 139.973 185.097C139.444 185.644 139.444 186.546 139.973 187.092Z" fill="#00C853"/>
<path d="M81.3009 196.262C81.3009 197.008 81.5954 197.683 82.0742 198.168C82.5449 198.663 83.1993 198.967 83.9216 198.967H121.505C122.949 198.967 124.125 197.753 124.125 196.262C124.125 195.517 123.831 194.832 123.36 194.346C122.882 193.852 122.227 193.548 121.505 193.548H83.9216C82.4778 193.548 81.3009 194.762 81.3009 196.262Z" fill="#D1D3D4"/>
<path d="M51.0839 182.15C51.0839 182.896 51.3775 183.572 51.8563 184.066C52.327 184.552 52.9822 184.855 53.7037 184.855H121.505C122.949 184.855 124.125 183.651 124.125 182.15C124.125 181.405 123.831 180.729 123.36 180.243C122.882 179.749 122.227 179.446 121.505 179.446H53.7037C52.2591 179.446 51.0839 180.659 51.0839 182.15Z" fill="#D2D5DA"/>
<path d="M136.597 162.281C136.597 163.226 137.344 163.997 138.268 163.997H153.133C154.057 163.997 154.804 163.226 154.804 162.281V146.928C154.804 145.975 154.057 145.204 153.133 145.204H138.268C137.344 145.204 136.597 145.975 136.597 146.928V162.281ZM138.268 144.337H153.133C154.519 144.337 155.645 145.498 155.645 146.928V162.281C155.645 163.702 154.519 164.865 153.133 164.865H138.268C136.882 164.865 135.757 163.702 135.757 162.281V146.928C135.757 145.498 136.882 144.337 138.268 144.337Z" fill="#D1D3D4"/>
<path d="M139.973 152.417L145.171 157.783L146.238 158.893C146.725 159.386 147.506 159.386 147.985 158.893L149.052 157.783L151.428 155.338C151.697 155.061 151.823 154.697 151.823 154.341C151.823 153.977 151.697 153.613 151.428 153.336C150.891 152.781 150.017 152.781 149.489 153.336L147.531 155.356C147.296 155.589 146.927 155.589 146.7 155.356L141.913 150.423C141.644 150.145 141.291 150.007 140.948 150.007C140.595 150.007 140.242 150.145 139.973 150.423C139.444 150.969 139.444 151.871 139.973 152.417Z" fill="white"/>
<path d="M139.973 152.417L145.171 157.783L146.238 158.893C146.725 159.386 147.506 159.386 147.985 158.893L149.052 157.783L151.428 155.338C151.697 155.061 151.823 154.697 151.823 154.341C151.823 153.977 151.697 153.613 151.428 153.336C150.891 152.781 150.017 152.781 149.489 153.336L147.531 155.356C147.296 155.589 146.927 155.589 146.7 155.356L141.913 150.423C141.644 150.145 141.291 150.007 140.948 150.007C140.595 150.007 140.242 150.145 139.973 150.423C139.444 150.969 139.444 151.871 139.973 152.417Z" fill="#00C853"/>
<path d="M81.3009 161.589C81.3009 162.335 81.5954 163.011 82.0742 163.496C82.5449 163.99 83.1993 164.293 83.9216 164.293H121.505C122.949 164.293 124.125 163.08 124.125 161.589C124.125 160.843 123.831 160.159 123.36 159.673C122.882 159.179 122.227 158.876 121.505 158.876H83.9216C82.4778 158.876 81.3009 160.09 81.3009 161.589Z" fill="#D1D3D4"/>
<path d="M51.0839 147.475C51.0839 148.221 51.3775 148.896 51.8563 149.39C52.327 149.876 52.9822 150.179 53.7037 150.179H121.505C122.949 150.179 124.125 148.975 124.125 147.475C124.125 146.73 123.831 146.054 123.36 145.568C122.882 145.073 122.227 144.77 121.505 144.77H53.7037C52.2591 144.77 51.0839 145.984 51.0839 147.475Z" fill="#D2D5DA"/>
<path d="M136.597 127.607C136.597 128.552 137.344 129.324 138.268 129.324H153.133C154.057 129.324 154.804 128.552 154.804 127.607V112.255C154.804 111.302 154.057 110.529 153.133 110.529H138.268C137.344 110.529 136.597 111.302 136.597 112.255V127.607ZM138.268 109.663H153.133C154.519 109.663 155.645 110.824 155.645 112.255V127.607C155.645 129.029 154.519 130.19 153.133 130.19H138.268C136.882 130.19 135.757 129.029 135.757 127.607V112.255C135.757 110.824 136.882 109.663 138.268 109.663Z" fill="#D1D3D4"/>
<path fill-rule="evenodd" clip-rule="evenodd" d="M30.78 250.25V97.2676H29.1976V250.25C29.1976 255.211 33.094 259.233 37.9005 259.233H118.073V257.6H37.9005C33.9679 257.6 30.78 254.309 30.78 250.25Z" fill="#1F2937"/>
<path d="M169.001 88.6829C169.001 85.6761 166.64 83.2386 163.727 83.2386H43.7056C40.7926 83.2386 38.4311 85.6761 38.4311 88.6829V244.278C38.4311 247.284 40.7926 249.722 43.7056 249.722H163.727C166.64 249.722 169.001 247.284 169.001 244.278V88.6829Z" fill="white"/>
<path fill-rule="evenodd" clip-rule="evenodd" d="M43.7056 84.8719H163.727C165.766 84.8719 167.419 86.5781 167.419 88.6829V244.278C167.419 246.382 165.766 248.089 163.727 248.089H43.7056C41.6665 248.089 40.0135 246.382 40.0135 244.278V88.6829C40.0135 86.5781 41.6665 84.8719 43.7056 84.8719ZM163.727 83.2386C166.64 83.2386 169.001 85.6761 169.001 88.6829V244.278C169.001 247.284 166.64 249.722 163.727 249.722H43.7056C40.7926 249.722 38.4311 247.284 38.4311 244.278V88.6829C38.4311 85.6761 40.7926 83.2386 43.7056 83.2386H163.727Z" fill="#1F2937"/>
<path opacity="0.5" d="M58.998 84.7454H42.6471C41.1906 84.7454 40.0099 85.9641 40.0099 87.4675V245.35C40.0099 246.853 41.1906 248.072 42.6471 248.072H58.998V84.7454Z" fill="#9CA3AF"/>
<path d="M81.699 123.443C81.699 131.574 75.3128 138.166 67.435 138.166C59.5572 138.166 53.171 131.574 53.171 123.443C53.171 115.311 59.5572 108.72 67.435 108.72C75.3128 108.72 81.699 115.311 81.699 123.443Z" fill="#00C853"/>
<path d="M75.8359 120.38L68.3272 128.131L66.7862 129.734C66.0829 130.448 64.9543 130.448 64.2626 129.734L62.7216 128.131L59.2891 124.6C58.9012 124.199 58.719 123.673 58.719 123.161C58.719 122.635 58.9012 122.109 59.2891 121.707C60.0649 120.907 61.3278 120.907 62.0907 121.707L64.9181 124.626C65.258 124.963 65.7908 124.963 66.1191 124.626L73.0343 117.5C73.4222 117.1 73.9316 116.9 74.4281 116.9C74.9375 116.9 75.4469 117.1 75.8359 117.5C76.6 118.29 76.6 119.591 75.8359 120.38Z" fill="white"/>
<path d="M81.699 170.443C81.699 178.574 75.3128 185.166 67.435 185.166C59.5572 185.166 53.171 178.574 53.171 170.443C53.171 162.312 59.5572 155.72 67.435 155.72C75.3128 155.72 81.699 162.312 81.699 170.443Z" fill="#00C853"/>
<path d="M75.8359 167.38L68.3272 175.132L66.7862 176.734C66.0829 177.448 64.9543 177.448 64.2626 176.734L62.7216 175.132L59.2891 171.601C58.9012 171.199 58.719 170.673 58.719 170.161C58.719 169.635 58.9012 169.109 59.2891 168.708C60.0649 167.907 61.3278 167.907 62.0907 168.708L64.9181 171.626C65.258 171.964 65.7908 171.964 66.1191 171.626L73.0343 164.5C73.4222 164.1 73.9316 163.9 74.4281 163.9C74.9375 163.9 75.4469 164.1 75.8359 164.5C76.6 165.29 76.6 166.591 75.8359 167.38Z" fill="white"/>
<path d="M81.699 219.142C81.699 227.274 75.3128 233.865 67.435 233.865C59.5572 233.865 53.171 227.274 53.171 219.142C53.171 211.011 59.5572 204.419 67.435 204.419C75.3128 204.419 81.699 211.011 81.699 219.142Z" fill="#00C853"/>
<path d="M75.8359 216.08L68.3272 223.832L66.7862 225.435C66.0829 226.148 64.9543 226.148 64.2626 225.435L62.7216 223.832L59.2891 220.301C58.9012 219.899 58.719 219.374 58.719 218.861C58.719 218.335 58.9012 217.81 59.2891 217.408C60.0649 216.607 61.3278 216.607 62.0907 217.408L64.9181 220.326C65.258 220.664 65.7908 220.664 66.1191 220.326L73.0343 213.201C73.4222 212.8 73.9316 212.6 74.4281 212.6C74.9375 212.6 75.4469 212.8 75.8359 213.201C76.6 213.99 76.6 215.292 75.8359 216.08Z" fill="white"/>
<path d="M91.3035 118.327C91.3035 118.026 91.5396 117.782 91.8309 117.782H155.513C155.804 117.782 156.04 118.026 156.04 118.327V118.936C156.04 119.237 155.804 119.481 155.513 119.481H91.8309C91.5396 119.481 91.3035 119.237 91.3035 118.936V118.327Z" fill="#1D1D1F"/>
<path d="M91.3036 126.82C91.3036 126.519 91.5397 126.275 91.831 126.275H118.207C118.498 126.275 118.734 126.519 118.734 126.82V127.43C118.734 127.73 118.498 127.974 118.207 127.974H91.831C91.5397 127.974 91.3036 127.73 91.3036 127.43V126.82Z" fill="#1D1D1F"/>
<path d="M91.3035 166.459C91.3035 166.158 91.5396 165.915 91.8309 165.915H155.513C155.804 165.915 156.04 166.158 156.04 166.459V167.069C156.04 167.37 155.804 167.613 155.513 167.613H91.8309C91.5396 167.613 91.3035 167.37 91.3035 167.069V166.459Z" fill="#1D1D1F"/>
<path d="M91.3036 174.951C91.3036 174.651 91.5397 174.407 91.831 174.407H118.207C118.498 174.407 118.734 174.651 118.734 174.951V175.561C118.734 175.862 118.498 176.106 118.207 176.106H91.831C91.5397 176.106 91.3036 175.862 91.3036 175.561V174.951Z" fill="#1D1D1F"/>
<path d="M91.3035 215.158C91.3035 214.857 91.5396 214.614 91.8309 214.614H155.513C155.804 214.614 156.04 214.857 156.04 215.158V215.768C156.04 216.069 155.804 216.312 155.513 216.312H91.8309C91.5396 216.312 91.3035 216.069 91.3035 215.768V215.158Z" fill="#1D1D1F"/>
<path d="M91.3036 223.652C91.3036 223.352 91.5397 223.108 91.831 223.108H118.207C118.498 223.108 118.734 223.352 118.734 223.652V224.262C118.734 224.563 118.498 224.807 118.207 224.807H91.831C91.5397 224.807 91.3036 224.563 91.3036 224.262V223.652Z" fill="#1D1D1F"/>
<path d="M49.1124 75.065C49.1837 75.0546 49.2539 75.0356 49.3222 75.0037C49.7545 74.818 49.957 74.3071 49.7716 73.8703L40.9076 52.4813C40.7257 52.0397 40.2261 51.837 39.798 52.0221C39.3657 52.2078 39.1632 52.7187 39.3487 53.1555L48.2126 74.5445C48.3675 74.9157 48.743 75.119 49.1124 75.065Z" fill="#111827"/>
<path d="M32.3056 89.6667C32.57 89.6281 32.8086 89.4663 32.9393 89.2065C33.1538 88.7814 32.9905 88.2583 32.5742 88.039L12.349 77.425C11.9327 77.2057 11.4206 77.3724 11.2061 77.7976C10.9916 78.2228 11.1549 78.7459 11.5712 78.9651L31.7964 89.5792C31.9583 89.6649 32.1334 89.6919 32.3014 89.6673L32.3056 89.6667Z" fill="#111827"/>
<path d="M37.8876 80.1241C38.0388 80.102 38.1881 80.0364 38.3139 79.9262C38.673 79.6155 38.7166 79.0709 38.4124 78.704L30.089 68.6525C29.7848 68.2857 29.2516 68.2411 28.8925 68.5517C28.5334 68.8623 28.4899 69.4069 28.7941 69.7738L37.1175 79.8253C37.3137 80.0636 37.6064 80.1652 37.8876 80.1241Z" fill="#111827"/>
<path d="M308.191 206.1C307.131 195.488 307.131 175.856 307.658 173.199C308.191 170.548 307.658 168.955 306.066 167.363C304.474 165.771 305.618 165.21 306.066 162.055C306.599 158.338 303.414 157.278 302.349 157.278C301.284 157.278 298.021 152.446 284.752 146.61C271.488 140.774 247.692 127.063 247.692 127.063C247.692 127.063 240.905 114.763 235.069 111.046C229.233 107.329 223.041 107.386 223.041 107.386C223.041 107.386 211.313 106.825 190.616 109.477C169.919 112.128 166.769 125.732 166.769 125.732C166.769 125.732 157.149 130.395 143.551 135.624C130.333 140.706 117.154 146.134 117.154 146.134C113.438 145.074 111.846 150.378 111.846 153.035C111.846 155.692 110.786 156.751 108.129 161.528C105.477 166.304 105.477 174.264 105.477 176.383C105.477 178.502 101.761 181.692 101.761 186.462C101.761 191.233 100.169 204.502 99.1092 213.528C98.0497 222.547 97.5171 237.409 98.5766 246.955C99.6361 256.508 106.004 267.652 106.004 267.652L122.729 289.805C122.565 287.159 122.248 284.513 121.766 281.879C121.353 279.624 124.803 278.666 125.217 280.927C127.132 291.426 126.786 302.043 124.169 312.394C122.809 317.771 120.945 323.08 119.098 328.309C118.276 330.649 117.375 332.955 116.503 335.272C115.789 337.187 114.662 339.414 114.962 341.516C117.483 343.754 123.659 346.887 127.222 347.777C131.466 348.836 148.979 357.856 164.367 347.777C179.755 337.697 186.123 313.816 186.123 313.816L196.202 311.692C196.202 311.692 202.571 340.343 208.406 349.369C214.242 358.389 226.446 361.573 232.814 358.921C239.182 356.27 248.735 357.862 264.65 356.796C277.318 355.952 282.922 352.423 284.956 349.947C285.318 342.762 283.08 336.003 280.933 329.204C278.672 322.054 276.242 306.026 274.27 298.791C272.27 291.442 272.61 263.403 272.61 263.403C272.61 263.403 294.899 258.627 297.902 250.961C300.91 243.295 302.854 233.159 305.505 225.199C308.157 217.239 309.222 216.706 308.157 206.094L308.191 206.1Z" fill="#C9D3E9"/>
<path d="M122.418 286.106C121.591 286.741 120.724 287.432 119.834 288.168L122.809 290.978C122.735 289.352 122.605 287.732 122.412 286.112L122.418 286.106Z" fill="#A4B6DA"/>
<path d="M128.572 281.715C128.572 281.715 127.428 282.446 125.683 283.693C127.071 293.285 126.578 302.956 124.187 312.395C123.938 313.392 123.66 314.384 123.377 315.375C149.331 321.296 184.289 315.676 184.289 315.676L128.572 281.715Z" fill="#A4B6DA"/>
<path d="M193.671 236.86C189.92 245.681 189.053 255.551 189.71 265.019C189.807 266.429 191.994 266.452 191.926 265.019C191.484 255.636 193.523 246.849 196.39 238.004C196.9 236.435 194.339 235.296 193.676 236.86H193.671Z" fill="#A4B6DA"/>
<path d="M192.781 266.327C192.781 266.327 195.433 253.59 200.742 247.222C206.051 240.854 239.478 283.307 239.478 283.307L217.189 287.023L192.781 266.327Z" fill="#A4B6DA"/>
<path d="M258.321 153.273C257.097 153.284 255.879 153.318 254.655 153.375C252.871 145.528 253.052 135.296 248.757 128.253C248.31 127.517 246.967 127.993 247.301 128.865C250.049 136.061 249.228 146.163 250.797 153.624C250.678 153.636 250.553 153.641 250.434 153.653C249.126 153.766 247.806 153.879 246.502 154.061C244.995 154.265 244.984 154.486 243.987 153.426C242.321 151.658 236.876 143.086 235.602 140.865C234.808 139.477 232.882 139.738 233.5 141.313C235.177 145.602 237.488 149.675 239.947 153.562C240.808 154.927 241.641 156.808 243.194 157.505C244.797 158.225 246.786 157.749 248.468 157.619C251.092 157.415 253.721 157.307 256.355 157.29C257.341 157.29 258.332 157.29 259.318 157.307C260.202 157.318 262.536 156.803 262.111 158.265C261.845 159.188 260.009 160.474 259.335 161.165C258.559 161.959 257.783 162.763 257.012 163.568C255.364 165.29 253.732 167.035 252.128 168.797C245.794 175.749 239.811 183.012 234.163 190.536C228.474 198.117 222.786 205.976 218.248 214.31C217.012 216.582 220.259 218.429 221.687 216.321C224.854 211.63 227.925 206.899 231.086 202.219C236.01 201.636 240.916 201.012 245.874 200.723C250.978 200.423 256.157 200.706 261.245 200.197C262.882 200.032 263.596 197.386 261.67 197.052C256.514 196.157 251.08 196.44 245.874 196.701C241.981 196.893 238.072 197.182 234.197 197.687C235.738 195.477 237.318 193.29 238.95 191.137C245.086 183.041 251.675 175.284 258.633 167.885C260.27 166.146 261.941 164.446 263.602 162.735C264.933 161.358 266.406 159.874 266.593 157.857C267.024 153.165 261.5 153.262 258.332 153.284L258.321 153.273Z" fill="#A4B6DA"/>
<path d="M188.508 234.01C185.727 226.752 181.608 219.823 178.135 212.871C174.639 205.868 171.2 198.837 167.596 191.891C164.112 185.183 160.384 178.588 156.004 172.418C153.999 169.596 151.863 166.865 149.676 164.185C148.429 162.656 147.16 161.149 145.885 159.642C145.058 158.667 143.234 157.086 142.367 155.642C143.291 155.426 144.86 155.443 145.325 155.398C146.582 155.279 147.846 155.234 149.109 155.251C151.8 155.29 154.475 155.642 157.12 156.123C157.341 156.163 157.545 156.163 157.732 156.123C158.242 157.557 160.667 157.681 161.103 155.976C162.22 151.636 163.262 147.398 164.645 143.115C165.97 139.001 167.081 132.86 167.341 128.525C167.443 126.877 164.639 126.452 164.412 128.129C163.812 132.548 162.356 138.848 160.883 143.035C159.732 146.299 158.367 149.778 157.846 153.273C153.534 151.772 148.928 151.313 144.384 151.755C141.693 152.016 136.622 152.735 138.526 156.758C139.5 158.814 141.67 160.667 143.109 162.418C144.571 164.197 146.021 165.987 147.443 167.806C150.673 171.942 153.738 176.214 156.503 180.673C161.755 189.137 166.067 198.134 170.52 207.035C172.86 211.715 175.205 216.395 177.545 221.075C179.942 225.862 182.067 230.984 184.916 235.517C186.044 237.313 189.341 236.174 188.508 234.004V234.01Z" fill="#A4B6DA"/>
<path d="M202.593 322.837C202.593 322.837 182.429 314.877 153.777 308.508C125.126 302.14 115.041 294.18 111.857 289.936C108.673 285.692 102.304 267.647 102.304 262.871C102.304 258.095 98.0608 253.319 99.1203 245.891C100.18 238.463 143.165 234.219 143.165 234.219C143.165 234.219 146.083 239.262 145.551 241.381C145.018 243.506 143.959 244.032 145.551 245.098C147.143 246.157 147.675 250.406 147.675 251.998C147.675 253.591 156.695 253.591 161.471 257.307C166.248 261.024 167.84 259.959 171.551 260.491C175.267 261.024 226.689 280.333 226.689 280.333L202.593 322.843V322.837Z" fill="#C9D3E9"/>
<path d="M205.779 310.105C205.779 310.105 200.47 321.777 202.594 322.842C204.719 323.901 216.923 304.27 216.923 304.27L205.779 310.105Z" fill="#54221C"/>
<path d="M234.435 281.449L224.356 279.324C224.356 279.324 221.171 277.732 215.336 288.344C209.5 298.956 205.783 310.101 205.783 310.101L219.047 311.693L234.435 281.449Z" fill="white"/>
<path d="M220.105 304.265C220.105 304.265 216.389 311.692 219.046 311.692C221.703 311.692 231.782 294.712 231.782 294.712L220.111 304.265H220.105Z" fill="#54221C"/>
<path d="M234.435 281.449C234.435 281.449 230.719 281.449 225.942 291.528C221.166 301.607 220.107 304.265 220.107 304.265C220.107 304.265 232.311 302.14 240.271 304.797C248.231 307.449 256.192 307.981 259.376 306.922C262.56 305.862 268.928 301.086 268.928 301.086C268.928 301.086 271.053 306.395 274.764 306.922C278.48 307.455 289.092 302.146 290.152 299.494C291.211 296.843 289.619 294.185 290.152 292.593C290.684 291.001 287.5 289.409 288.027 287.285C288.56 285.16 282.718 279.324 278.475 277.205C274.231 275.081 234.43 281.449 234.43 281.449H234.435Z" fill="#D3857A"/>
<path d="M279.595 294.372C276.536 296.321 273.017 297.069 269.867 298.752C268.32 299.579 269.408 301.873 271.029 301.499C272.496 301.159 274.009 300.633 275.476 299.992C275.538 300.026 275.612 300.055 275.697 300.066L276.394 300.31C276.802 300.633 277.233 300.638 277.64 300.31C278.915 299.29 279.674 297.822 281.057 296.859C282.564 295.811 281.187 293.352 279.601 294.366L279.595 294.372Z" fill="#C3594B"/>
<path d="M221.16 276.123C213.93 271.511 205.715 269.132 197.573 266.696C193.177 265.381 188.757 264.033 184.553 262.157C180.791 260.48 177.126 258.248 172.916 257.987C170.616 257.846 168.265 258.792 166.021 258.101C164.055 257.494 162.344 256.129 160.531 255.2C158.214 254.01 155.772 253.07 153.267 252.378C153.222 251.149 152.979 249.953 152.435 248.826C152.123 248.18 151.743 247.579 151.279 247.03C150.945 246.633 150.072 246.129 149.777 245.67C149.993 245.902 150.123 244.798 150.248 244.339C150.463 243.562 150.616 242.701 150.627 241.891C150.644 240.118 150.106 238.384 149.449 236.764C146.65 229.84 143.919 223.053 141.755 215.885C139.613 208.781 137.721 201.579 135.268 194.571C133.007 188.112 130.503 181.098 125.891 175.914C125.353 175.308 124.344 175.948 124.559 176.69C126.429 183.274 129.268 189.591 131.251 196.157C133.262 202.826 135.007 209.562 136.905 216.259C138.735 222.707 140.735 229.109 143.364 235.285C144.117 237.064 145.12 238.854 145.449 240.775C145.732 242.435 144.843 243.721 144.678 245.307C144.525 246.764 145.103 247.749 145.84 248.645C132.882 245.256 119.285 248.458 109.007 257.46C108.123 258.237 109.324 259.846 110.282 259.115C118.429 252.888 128.78 250.101 138.786 251.279C134.151 251.829 129.659 253.245 125.398 255.506C124.117 256.186 125.018 258.48 126.406 257.902C134.066 254.696 142.769 254.044 150.826 256.044C154.65 256.996 157.981 258.577 161.392 260.509C163.018 261.426 164.656 262.248 166.531 262.48C168.548 262.73 170.469 262.078 172.48 262.157C176.633 262.31 180.446 264.956 184.185 266.514C187.908 268.072 191.755 269.296 195.619 270.458C203.709 272.882 214.276 275.086 222.769 278.803C225.137 279.84 223.335 277.511 221.171 276.135L221.16 276.123Z" fill="#A4B6DA"/>
<path opacity="0.5" d="M130.876 200.276C127.109 192.474 123.732 184.446 121.182 176.157C119.975 172.231 118.973 168.253 118.293 164.202C117.55 159.766 117.499 155.398 117.284 150.928C117.199 149.171 115.171 148.656 115.041 150.384C114.372 158.95 116.128 168.741 118.786 176.82C121.556 185.239 125.505 193.171 129.686 200.973C130.111 201.76 131.261 201.069 130.876 200.276Z" fill="#A4B6DA"/>
<path d="M224.348 110.084C224.348 110.084 231.249 110.084 235.493 116.452C239.736 122.821 231.776 144.543 225.94 158.345C220.105 172.141 211.085 193.897 207.901 205.041C204.716 216.186 189.861 208.758 189.861 208.758C189.861 208.758 180.309 147.733 178.19 137.653C176.065 127.574 173.311 115.874 188.224 112.186C203.13 108.498 224.359 110.09 224.359 110.09L224.348 110.084Z" fill="white"/>
<path d="M180.836 120.696C180.836 120.696 179.776 115.387 188.796 113.268C197.816 111.144 234.433 106.368 229.657 118.045C224.881 129.716 180.841 120.696 180.841 120.696H180.836Z" fill="#54221C"/>
<path d="M224.883 103.189C224.883 103.189 223.291 114.333 229.659 118.044C229.659 118.044 224.35 137.115 203.126 146.668C203.126 146.668 191.455 139.801 186.146 132.373C180.838 124.945 180.838 120.702 180.838 120.702C180.838 120.702 189.33 118.05 187.206 105.314C185.081 92.577 224.883 103.189 224.883 103.189Z" fill="#D3857A"/>
<path d="M225.269 111.387C224.294 107.319 224.878 103.189 224.878 103.189C224.878 103.189 211.558 99.6362 200.742 99.1093L192.538 99.5342C188.906 100.293 186.657 102.021 187.201 105.313C187.603 107.727 187.626 109.772 187.393 111.512C189.031 115.217 193.83 122.985 205.614 123.829C217.229 124.662 223.059 115.88 225.263 111.387H225.269Z" fill="#C3594B"/>
<path d="M205.177 166.011C209.126 162.362 214.27 155.161 214.27 155.161C210.553 150.917 202.859 146.934 202.859 146.934C202.859 146.934 189.596 152.243 190.123 154.895C190.434 156.447 193.381 161.183 196.519 164.526C195.205 169.421 188.848 193.489 189.324 199.206C189.772 204.606 200.916 208.86 204.281 210.028C205.874 209.104 207.182 207.546 207.896 205.042C208.893 201.552 210.463 197.019 212.332 192.016C210.202 183.28 207.165 171.382 205.171 166.016L205.177 166.011Z" fill="#0C111D"/>
<path d="M222.677 164.81C220.864 160.147 217.312 154.067 212.394 152.186C211.839 151.971 211.329 152.708 211.629 153.183C212.921 155.217 214.785 156.821 216.207 158.77C217.748 160.883 218.944 163.149 219.952 165.563C220.638 167.2 223.34 166.526 222.672 164.815L222.677 164.81Z" fill="#E6EBF5"/>
<path d="M189.306 153.557C186.326 155.619 183.453 158.401 181.912 161.738C181.153 163.381 183.408 164.78 184.382 163.183C186.116 160.344 187.906 157.789 190.586 155.749C191.855 154.786 190.671 152.61 189.306 153.557Z" fill="#E6EBF5"/>
<path d="M170.564 57.0356C170.564 57.0356 165.397 47.2226 164.882 42.5711C164.366 37.9195 168.496 38.4408 168.496 38.4408C168.496 38.4408 163.329 23.9762 171.595 10.5485C180.53 -3.97276 191.221 -1.33253 190.19 3.31902C190.19 3.31902 202.587 -6.494 223.244 -3.39485C243.901 -0.295706 240.808 15.2 236.156 18.8147C236.156 18.8147 240.802 20.3615 241.323 30.1802C241.839 39.9932 237.709 55.4889 237.709 55.4889L170.564 57.0356Z" fill="#0C111D"/>
<path d="M171.204 57.7881C171.204 57.7881 164.513 24.3434 178.847 14.3095C199.38 -0.0644519 205.04 -0.449726 227.584 13.8335C241.918 22.91 235.708 71.1706 235.708 71.1706L171.204 57.7938V57.7881Z" fill="#0C111D"/>
<path d="M172.904 56.2931C172.904 56.2931 167.856 52.0551 164.513 56.3554C161.17 60.6557 167.856 79.2902 174.071 77.8568C180.281 76.4233 172.904 56.2931 172.904 56.2931Z" fill="#D3857A"/>
<path d="M234.373 55.5846C234.373 55.5846 239.076 50.9671 242.742 55.0011C246.407 59.0294 241.172 78.1228 234.866 77.171C228.56 76.2191 234.368 55.5846 234.368 55.5846H234.373Z" fill="#D3857A"/>
<path d="M172.163 49.6636C171.545 49.7089 172.038 67.097 172.078 68.2132C172.446 78.2868 173.29 88.4001 177.114 97.8335C178.553 101.386 180.763 105.159 184.48 106.077C185.092 106.23 185.749 106.304 186.259 106.672C186.667 106.967 186.927 107.409 187.205 107.828C193.845 117.867 207.647 116.525 217.556 113.216C221.851 111.782 225.839 108.661 228.559 105.069C231.109 101.703 232.672 97.5332 232.576 93.3179C232.565 92.7853 232.525 92.2414 232.695 91.7372C232.893 91.148 233.341 90.689 233.726 90.2018C235.8 87.5899 236.315 83.6749 236.451 80.4511C236.655 75.5389 236.786 70.6041 236.417 65.6919C236.077 61.131 236.145 56.5928 235.239 52.0602C233.805 44.8931 172.168 49.6693 172.168 49.6693L172.163 49.6636Z" fill="#0C111D"/>
<path d="M194.843 88.5423C194.843 88.5423 203.109 86.9955 213.953 88.0267C213.953 88.0267 210.854 94.7406 205.171 95.2562C199.489 95.7717 194.843 88.5423 194.843 88.5423Z" fill="white"/>
<path d="M234.039 58.984C234.039 58.984 234.039 75.7092 228.781 79.5279C223.523 83.3523 214.515 78.0945 207.755 78.0945C197.721 78.0945 192.945 83.3523 186.73 82.3947C180.52 81.4372 176.22 76.6611 175.263 70.9273C174.622 67.0917 173.84 63.273 173.399 59.4033C173.195 57.6356 172.804 55.5336 173.268 53.7886C173.818 51.7149 175.393 50.0662 176.815 48.5364C178.503 46.7178 180.243 44.6101 180.203 42.1285C180.186 41.1314 179.88 40.1625 179.568 39.2107C179.155 37.9246 178.736 36.6385 178.322 35.3523C177.869 33.9529 177.495 32.2079 178.543 31.1767C179.28 30.4572 180.441 30.4118 181.467 30.5251C183.704 30.7631 185.846 31.7319 188.067 31.8056C190.6 31.8906 193.132 31.9699 195.665 32.0549C197.699 32.1229 199.738 32.1909 201.767 32.0266C206.985 31.6186 211.971 29.7263 217.138 28.9387C218.951 28.6611 220.809 28.5251 222.605 28.8821C224.747 29.307 226.724 30.4458 228.248 32.0096C229.115 32.8991 229.869 33.9982 229.954 35.2334C230.135 37.8849 227.512 39.477 227.398 42.0775C227.313 44.0549 228.362 45.8906 229.415 47.5053C231.789 51.1427 234.322 54.3778 234.033 58.9784L234.039 58.984Z" fill="#D3857A"/>
<path d="M186.729 56.005C182.446 55.6198 182.123 62.4186 186.111 62.6056C188.196 62.7019 189.471 61.2515 189.698 59.3138C189.868 57.8351 188.162 56.1353 186.729 56.005Z" fill="#54221C"/>
<path d="M223.324 61.4318C226.202 58.2307 220.95 53.9021 218.412 56.9843C217.086 58.5933 217.483 60.4857 218.899 61.8284C219.981 62.8483 222.367 62.5027 223.33 61.4318H223.324Z" fill="#54221C"/>
<path d="M207.943 74.1181C208.017 73.3022 207.388 72.526 206.561 72.4523C205.75 72.3843 204.935 72.3163 204.124 72.2484C203.303 72.1804 202.538 72.8036 202.459 73.6308C202.385 74.4467 203.014 75.2229 203.841 75.2965C204.651 75.3645 205.467 75.4325 206.277 75.5005C207.099 75.5685 207.864 74.9453 207.943 74.1181Z" fill="#C3594B"/>
<path d="M192.684 43.2C189.573 43.9649 186.576 45.1434 183.647 46.4351C182.786 46.8147 181.913 47.217 181.233 47.8572C180.565 48.4861 179.992 49.5853 180.179 50.5371C180.366 51.472 181.347 51.9819 182.202 51.5569C184.145 50.5881 186.004 49.4436 187.987 48.5541C189.941 47.6816 192.032 47.2227 194.021 46.4521C195.89 45.7269 194.378 42.7921 192.848 43.1604C192.797 43.1717 192.74 43.1887 192.689 43.2H192.684Z" fill="#0C111D"/>
<path d="M212.628 44.0165C212.549 43.9542 212.47 43.8918 212.391 43.8238C210.572 42.2544 212.974 40.6114 214.645 40.6057C215.949 40.6057 216.929 41.2913 218.062 41.8748C219.393 42.5604 220.725 43.2403 222.062 43.9258C223.308 44.566 224.742 45.076 225.716 46.1185C226.424 46.8777 227.252 49.3026 225.365 48.889C222.685 48.3054 220.164 46.8777 217.609 45.8975C216.017 45.2856 214.034 45.0646 212.634 44.0165H212.628Z" fill="#0C111D"/>
<path d="M182.963 241.12C182.963 241.12 205.779 259.692 216.923 268.712C228.068 277.732 247.699 294.712 263.087 289.936C278.475 285.16 294.396 264.995 294.923 259.692C295.456 254.383 298.64 250.672 299.699 245.896C300.759 241.12 284.844 226.264 284.844 226.264L250.883 229.449C250.883 229.449 248.232 224.14 246.107 224.14C243.983 224.14 241.864 224.672 240.272 222.548C238.68 220.423 208.436 197.075 208.436 197.075L182.963 241.12Z" fill="#C9D3E9"/>
<path d="M191.448 232.633C191.448 232.633 184.548 242.712 182.956 241.126C181.363 239.534 183.488 231.573 189.324 220.961C195.159 210.35 199.936 210.35 199.936 210.35L191.443 232.639L191.448 232.633Z" fill="#54221C"/>
<path d="M208.43 197.081L201.529 191.245L185.138 211.84L180.832 223.614L191.444 232.633C191.444 232.633 211.608 206.633 208.424 197.081H208.43Z" fill="white"/>
<path d="M185.613 209.812C185.613 209.812 178.712 223.608 180.837 223.608C182.961 223.608 187.737 216.707 187.737 216.707L185.613 209.806V209.812Z" fill="#54221C"/>
<path d="M201.532 191.239C201.532 191.239 191.453 177.976 190.92 175.319C190.387 172.667 189.861 160.99 185.084 153.03C183.385 150.202 179.929 146.225 177.141 144.304C175.294 143.035 171.679 142.695 169.742 143.71C168.654 144.276 167.759 145.149 166.846 145.97C166.637 146.157 166.416 146.35 166.138 146.418C165.849 146.486 165.543 146.401 165.254 146.344C162.994 145.891 160.507 147.115 159.487 149.177C159.373 149.404 159.254 149.664 159.022 149.761C158.829 149.84 158.614 149.789 158.416 149.755C156.637 149.409 154.716 149.897 153.317 151.047C151.917 152.197 151.073 153.993 151.073 155.806C147.322 156.684 144.66 158.803 144.24 162.588C143.708 167.364 151.141 179.035 155.385 174.259C155.385 174.259 158.036 185.404 162.286 188.055C166.529 190.707 167.594 190.707 169.713 192.299C171.838 193.891 187.753 216.707 187.753 216.707C187.753 216.707 202.081 197.075 201.549 191.234L201.532 191.239Z" fill="#D3857A"/>
<path d="M156.346 172.951C155.263 169.432 152.136 165.84 149.15 163.778C147.943 162.945 146.414 164.888 147.569 165.829C147.717 165.993 147.864 166.163 148.017 166.333C148.374 166.894 148.499 167.602 148.572 168.254C148.691 169.268 149.841 169.574 150.425 169.064C151.62 170.509 152.697 172.05 153.326 173.789C154 175.665 156.946 174.911 156.346 172.956V172.951Z" fill="#C3594B"/>
<path d="M176.294 146.299C171.319 147.489 165.999 150.163 161.897 153.188C160.951 153.885 160.475 154.276 159.348 154.418C158.407 154.537 157.586 154.627 156.707 155.035C154.94 155.863 153.829 157.29 153.2 159.103C152.753 160.389 154.872 161.313 155.427 160.044C156.554 157.46 158.192 157.517 160.577 157.126C162.328 156.837 163.755 155.273 165.229 154.361C169.076 151.993 173.399 150.894 177.365 148.848C178.804 148.106 177.789 145.942 176.294 146.305V146.299Z" fill="#CC7266"/>
<path d="M257.454 225.863C257.618 225.285 257.805 224.718 258.077 224.174C258.949 222.441 260.168 220.911 261.42 219.443C264.117 216.276 266.853 213.222 269.187 209.761C274.026 202.594 277.714 194.463 280.677 186.356C281.425 184.305 278.151 182.939 277.153 184.871C272.961 193.007 269.465 201.438 264.066 208.905C261.635 212.271 258.649 215.154 256.134 218.452C254.989 219.953 253.476 222.089 252.689 224.265C251.199 222.441 249.403 221.358 246.751 221.03C244.27 220.718 242.649 220.191 240.604 218.639C239.035 217.449 237.488 216.231 235.924 215.035C232.292 212.259 228.655 209.489 224.995 206.752C221.052 203.806 216.848 201.324 212.785 198.582C211.782 197.908 210.593 199.443 211.494 200.259C214.865 203.313 218.026 206.582 221.545 209.506C224.927 212.316 228.355 215.069 231.782 217.823C234.78 220.231 237.85 223.358 241.408 224.916C243.074 225.647 244.672 225.642 246.423 225.948C248.411 226.299 248.984 227.466 249.935 229.058C251.635 231.908 253.499 233.273 256.519 234.565C259.669 235.914 262.66 237.653 265.329 239.812C268.077 242.033 270.57 244.656 272.576 247.562C274.496 250.344 275.584 253.715 277.652 256.344C278.762 257.755 281.267 256.571 281.17 254.888C280.989 251.551 278.819 248.157 277.006 245.438C275.029 242.48 272.694 239.732 270.043 237.364C267.488 235.086 264.655 233.081 261.618 231.5C261.085 231.222 260.542 230.979 259.992 230.735C273.25 234.537 283.301 245.228 284.887 259.579C285.085 261.358 287.867 261.421 287.72 259.579C286.422 242.848 273.964 228.667 257.448 225.863H257.454Z" fill="#A4B6DA"/>
<path opacity="0.5" d="M299.731 159.251C294.604 165.296 290.96 172.367 287.561 179.483C285.833 183.103 284.156 186.741 282.343 190.321C280.604 193.743 278.048 197.075 276.728 200.65C276.428 201.471 277.561 202.01 278.128 201.466C280.808 198.882 282.496 194.673 284.15 191.381C285.884 187.93 287.487 184.412 289.13 180.916C292.536 173.681 296.145 166.616 301.006 160.236C301.561 159.506 300.326 158.548 299.731 159.251Z" fill="#A4B6DA"/>
<path d="M274.821 353.704C267.053 357.024 230.861 357.256 227.076 356.758C220.164 355.84 214.028 351.506 210.447 345.602C206.141 338.503 204.453 330.197 200.855 322.78C199.864 320.735 197.478 322.373 197.943 324.418C199.014 329.188 200.357 333.732 202.045 338.316C203.467 342.186 205.501 347.67 207.784 351.126C211.864 357.302 218.408 361.897 225.756 363.166C234.385 364.661 268.798 360.31 276.912 355.789C279.79 354.186 277.682 352.474 274.821 353.698V353.704Z" fill="#A4B6DA"/>
<path d="M182.78 320.236C178.491 331.035 174.638 340.712 163.584 346.35C153.046 351.726 138.259 350.497 127.347 346.905C125.981 346.457 124.451 347.319 125.777 347.953C132.083 350.945 141.466 355.398 148.542 355.67C154.865 355.913 161.12 354.712 166.837 351.976C179.46 345.93 181.658 333.415 186.44 321.279C187.635 318.242 183.97 317.239 182.78 320.231V320.236Z" fill="#A4B6DA"/>
</g>
<path d="M172.928 60.9009C172.928 60.9009 167.772 51.1096 167.258 46.4683C166.743 41.827 170.864 42.3471 170.864 42.3471C170.864 42.3471 165.709 27.9144 173.957 14.5163C182.872 0.027183 193.539 2.66158 192.511 7.30286C192.511 7.30286 204.88 -2.48849 225.491 0.603814C246.103 3.69612 243.016 19.1576 238.375 22.7644C238.375 22.7644 243.01 24.3077 243.531 34.1047C244.045 43.8961 239.924 59.3576 239.924 59.3576L172.928 60.9009Z" fill="#0C111D"/>
<path d="M173.567 61.6536C173.567 61.6536 166.891 28.2828 181.193 18.2709C201.681 3.92874 207.328 3.54432 229.822 17.7961C244.125 26.8525 237.929 75.0065 237.929 75.0065L173.567 61.6593V61.6536Z" fill="#0C111D"/>
<path d="M175.262 60.1593C175.262 60.1593 170.225 55.9307 166.89 60.2215C163.555 64.5123 170.225 83.1057 176.427 81.6754C182.623 80.2452 175.262 60.1593 175.262 60.1593Z" fill="#D3857A"/>
<path d="M236.596 59.4533C236.596 59.4533 241.288 54.846 244.945 58.8711C248.603 62.8905 243.38 81.9418 237.088 80.9921C230.796 80.0423 236.59 59.4533 236.59 59.4533H236.596Z" fill="#D3857A"/>
<path d="M174.523 53.5456C173.907 53.5908 174.398 70.9405 174.438 72.0542C174.805 82.1056 175.648 92.1965 179.464 101.609C180.9 105.154 183.104 108.919 186.813 109.835C187.423 109.987 188.079 110.061 188.588 110.428C188.995 110.722 189.255 111.163 189.532 111.581C196.158 121.599 209.929 120.259 219.816 116.958C224.101 115.527 228.081 112.412 230.795 108.828C233.339 105.47 234.899 101.309 234.803 97.1035C234.792 96.5721 234.752 96.0294 234.922 95.5263C235.119 94.9383 235.566 94.4804 235.95 93.9942C238.019 91.3881 238.534 87.4818 238.67 84.2651C238.873 79.3638 239.003 74.4398 238.636 69.5385C238.296 64.9876 238.364 60.4594 237.46 55.9369C236.03 48.7856 174.528 53.5512 174.528 53.5512L174.523 53.5456Z" fill="#0C111D"/>
<path d="M197.153 92.3392C197.153 92.3392 205.401 90.7959 216.221 91.8247C216.221 91.8247 213.129 98.5238 207.459 99.0382C201.789 99.5527 197.153 92.3392 197.153 92.3392Z" fill="white"/>
<path d="M236.262 62.8446C236.262 62.8446 236.262 79.5329 231.016 83.3431C225.769 87.159 216.781 81.9129 210.037 81.9129C200.025 81.9129 195.259 87.159 189.058 86.2036C182.862 85.2482 178.571 80.4826 177.616 74.7616C176.977 70.9343 176.197 67.1241 175.756 63.2629C175.552 61.4991 175.162 59.4018 175.626 57.6606C176.174 55.5915 177.746 53.9464 179.165 52.4201C180.849 50.6054 182.585 48.5024 182.545 46.0263C182.528 45.0313 182.223 44.0646 181.912 43.1149C181.499 41.8316 181.081 40.5483 180.668 39.2651C180.216 37.8687 179.843 36.1275 180.889 35.0986C181.624 34.3807 182.783 34.3355 183.806 34.4485C186.039 34.686 188.176 35.6527 190.392 35.7262C192.919 35.811 195.446 35.8901 197.973 35.9749C200.002 36.0427 202.037 36.1106 204.061 35.9466C209.268 35.5396 214.243 33.6514 219.398 32.8656C221.207 32.5886 223.062 32.4529 224.854 32.8091C226.991 33.2331 228.964 34.3694 230.484 35.9297C231.349 36.8172 232.101 37.9139 232.186 39.1463C232.367 41.792 229.749 43.3806 229.636 45.9754C229.551 47.9484 230.597 49.78 231.649 51.3912C234.018 55.0206 236.544 58.2485 236.256 62.8389L236.262 62.8446Z" fill="#D3857A"/>
<path d="M189.057 59.8728C184.784 59.4884 184.461 66.2722 188.441 66.4588C190.522 66.5549 191.794 65.1077 192.02 63.1743C192.189 61.6988 190.488 60.0028 189.057 59.8728Z" fill="#54221C"/>
<path d="M225.571 65.2869C228.443 62.0928 223.203 57.7738 220.67 60.8491C219.347 62.4546 219.743 64.3428 221.156 65.6826C222.236 66.7002 224.616 66.3553 225.577 65.2869H225.571Z" fill="#54221C"/>
<path d="M210.224 77.9453C210.297 77.1313 209.67 76.3568 208.844 76.2833C208.036 76.2155 207.222 76.1476 206.414 76.0798C205.594 76.0119 204.831 76.6338 204.752 77.4592C204.678 78.2732 205.306 79.0477 206.131 79.1212C206.939 79.189 207.753 79.2569 208.562 79.3247C209.382 79.3926 210.145 78.7707 210.224 77.9453Z" fill="#C3594B"/>
<path d="M194.999 47.0959C191.895 47.859 188.905 49.0349 185.982 50.3238C185.123 50.7026 184.252 51.104 183.574 51.7428C182.907 52.3703 182.336 53.467 182.522 54.4168C182.709 55.3495 183.687 55.8583 184.54 55.4343C186.479 54.4676 188.334 53.3257 190.312 52.4381C192.263 51.5675 194.349 51.1096 196.333 50.3408C198.198 49.6172 196.689 46.6888 195.163 47.0563C195.112 47.0676 195.055 47.0846 195.004 47.0959H194.999Z" fill="#0C111D"/>
<path d="M214.899 47.909C214.82 47.8468 214.741 47.7846 214.662 47.7168C212.847 46.1508 215.244 44.5114 216.912 44.5057C218.212 44.5057 219.19 45.1898 220.32 45.7721C221.649 46.4561 222.977 47.1345 224.312 47.8185C225.555 48.4573 226.986 48.9661 227.958 50.0063C228.664 50.7638 229.49 53.1834 227.607 52.7707C224.933 52.1884 222.418 50.7638 219.868 49.7858C218.28 49.1753 216.301 48.9548 214.905 47.909H214.899Z" fill="#0C111D"/>
</svg>
